<mxfile host="Electron" agent="Mozilla/5.0 (Windows NT 10.0; Win64; x64) AppleWebKit/537.36 (KHTML, like Gecko) draw.io/28.1.2 Chrome/138.0.7204.243 Electron/37.4.0 Safari/537.36" version="28.1.2">
  <diagram name="Página-1" id="vC_O6LwcWzc2zoWE40j2">
    <mxGraphModel dx="703" dy="850" grid="1" gridSize="10" guides="1" tooltips="1" connect="1" arrows="1" fold="1" page="1" pageScale="1" pageWidth="827" pageHeight="1169" math="0" shadow="0">
      <root>
        <mxCell id="0" />
        <mxCell id="1" parent="0" />
        <mxCell id="im5-o7usMu12Ao5SWC0J-1" value="" style="shape=table;startSize=0;container=1;collapsible=0;childLayout=tableLayout;" vertex="1" parent="1">
          <mxGeometry x="170" y="290" width="771" height="570" as="geometry" />
        </mxCell>
        <mxCell id="im5-o7usMu12Ao5SWC0J-2" value="" style="shape=tableRow;horizontal=0;startSize=0;swimlaneHead=0;swimlaneBody=0;strokeColor=inherit;top=0;left=0;bottom=0;right=0;collapsible=0;dropTarget=0;fillColor=none;points=[[0,0.5],[1,0.5]];portConstraint=eastwest;" vertex="1" parent="im5-o7usMu12Ao5SWC0J-1">
          <mxGeometry width="771" height="65" as="geometry" />
        </mxCell>
        <mxCell id="im5-o7usMu12Ao5SWC0J-3" value="&lt;b&gt;Nombre del caso de uso&lt;/b&gt;" style="shape=partialRectangle;html=1;whiteSpace=wrap;connectable=0;strokeColor=inherit;overflow=hidden;fillColor=none;top=0;left=0;bottom=0;right=0;pointerEvents=1;" vertex="1" parent="im5-o7usMu12Ao5SWC0J-2">
          <mxGeometry width="262" height="65" as="geometry">
            <mxRectangle width="262" height="65" as="alternateBounds" />
          </mxGeometry>
        </mxCell>
        <mxCell id="im5-o7usMu12Ao5SWC0J-4" value="&lt;font style=&quot;font-size: 14px;&quot;&gt;&amp;nbsp;Iniciar Sesion&lt;/font&gt;" style="shape=partialRectangle;html=1;whiteSpace=wrap;connectable=0;strokeColor=inherit;overflow=hidden;fillColor=none;top=0;left=0;bottom=0;right=0;pointerEvents=1;align=left;" vertex="1" parent="im5-o7usMu12Ao5SWC0J-2">
          <mxGeometry x="262" width="509" height="65" as="geometry">
            <mxRectangle width="509" height="65" as="alternateBounds" />
          </mxGeometry>
        </mxCell>
        <mxCell id="im5-o7usMu12Ao5SWC0J-5" value="" style="shape=tableRow;horizontal=0;startSize=0;swimlaneHead=0;swimlaneBody=0;strokeColor=inherit;top=0;left=0;bottom=0;right=0;collapsible=0;dropTarget=0;fillColor=none;points=[[0,0.5],[1,0.5]];portConstraint=eastwest;" vertex="1" parent="im5-o7usMu12Ao5SWC0J-1">
          <mxGeometry y="65" width="771" height="67" as="geometry" />
        </mxCell>
        <mxCell id="im5-o7usMu12Ao5SWC0J-6" value="&lt;b&gt;Descripcion&lt;/b&gt;" style="shape=partialRectangle;html=1;whiteSpace=wrap;connectable=0;strokeColor=inherit;overflow=hidden;fillColor=none;top=0;left=0;bottom=0;right=0;pointerEvents=1;" vertex="1" parent="im5-o7usMu12Ao5SWC0J-5">
          <mxGeometry width="262" height="67" as="geometry">
            <mxRectangle width="262" height="67" as="alternateBounds" />
          </mxGeometry>
        </mxCell>
        <mxCell id="im5-o7usMu12Ao5SWC0J-7" value="&lt;p style=&quot;language:es-MX;line-height:normal;margin-top:0pt;margin-bottom:0pt;&lt;br/&gt;margin-left:0in;margin-right:0in;text-indent:0in;text-align:justify;text-justify:&lt;br/&gt;inter-ideograph;direction:ltr;unicode-bidi:embed&quot;&gt;&lt;font style=&quot;font-size: 12px;&quot;&gt;&lt;span style=&quot;font-family: Verdana; font-variant-numeric: normal; font-variant-east-asian: normal; font-variant-alternates: normal; font-variant-position: normal; font-variant-emoji: normal;&quot;&gt;Especifica&amp;nbsp;&lt;/span&gt;&lt;span style=&quot;font-family: Verdana; font-variant-numeric: normal; font-variant-east-asian: normal; font-variant-alternates: normal; font-variant-position: normal; font-variant-emoji: normal;&quot;&gt;el&amp;nbsp;&lt;/span&gt;&lt;span style=&quot;font-family: Verdana; font-variant-numeric: normal; font-variant-east-asian: normal; font-variant-alternates: normal; font-variant-position: normal; font-variant-emoji: normal;&quot;&gt;modo &lt;/span&gt;&lt;span style=&quot;font-family: Verdana; font-variant-numeric: normal; font-variant-east-asian: normal; font-variant-alternates: normal; font-variant-position: normal; font-variant-emoji: normal;&quot;&gt;en&amp;nbsp;&lt;/span&gt;&lt;span style=&quot;font-family: Verdana; font-variant-numeric: normal; font-variant-east-asian: normal; font-variant-alternates: normal; font-variant-position: normal; font-variant-emoji: normal;&quot;&gt;el&amp;nbsp;&lt;/span&gt;&lt;span style=&quot;font-family: Verdana; font-variant-numeric: normal; font-variant-east-asian: normal; font-variant-alternates: normal; font-variant-position: normal; font-variant-emoji: normal;&quot;&gt;que un &lt;/span&gt;&lt;span style=&quot;font-family: Verdana; font-variant-numeric: normal; font-variant-east-asian: normal; font-variant-alternates: normal; font-variant-position: normal; font-variant-emoji: normal;&quot;&gt;usuario&amp;nbsp;&lt;/span&gt;&lt;span style=&quot;font-family: Verdana; font-variant-numeric: normal; font-variant-east-asian: normal; font-variant-alternates: normal; font-variant-position: normal; font-variant-emoji: normal;&quot;&gt;registrado&amp;nbsp;&lt;/span&gt;&lt;span style=&quot;font-family: Verdana; font-variant-numeric: normal; font-variant-east-asian: normal; font-variant-alternates: normal; font-variant-position: normal; font-variant-emoji: normal;&quot;&gt;inicia&lt;/span&gt;&lt;span style=&quot;font-family: Verdana; font-variant-numeric: normal; font-variant-east-asian: normal; font-variant-alternates: normal; font-variant-position: normal; font-variant-emoji: normal;&quot;&gt;s sesión&amp;nbsp;&lt;/span&gt;&lt;span style=&quot;font-family: Verdana; font-variant-numeric: normal; font-variant-east-asian: normal; font-variant-alternates: normal; font-variant-position: normal; font-variant-emoji: normal;&quot;&gt;con &lt;/span&gt;&lt;span style=&quot;font-family: Verdana; font-variant-numeric: normal; font-variant-east-asian: normal; font-variant-alternates: normal; font-variant-position: normal; font-variant-emoji: normal;&quot;&gt;su&amp;nbsp;&lt;/span&gt;&lt;span style=&quot;font-family: Verdana; font-variant-numeric: normal; font-variant-east-asian: normal; font-variant-alternates: normal; font-variant-position: normal; font-variant-emoji: normal;&quot;&gt;nombre&amp;nbsp;&lt;/span&gt;&lt;span style=&quot;font-family: Verdana; font-variant-numeric: normal; font-variant-east-asian: normal; font-variant-alternates: normal; font-variant-position: normal; font-variant-emoji: normal;&quot;&gt;de &lt;/span&gt;&lt;span style=&quot;font-family: Verdana; font-variant-numeric: normal; font-variant-east-asian: normal; font-variant-alternates: normal; font-variant-position: normal; font-variant-emoji: normal;&quot;&gt;usuario&amp;nbsp;&lt;/span&gt;&lt;span style=&quot;font-family: Verdana; font-variant-numeric: normal; font-variant-east-asian: normal; font-variant-alternates: normal; font-variant-position: normal; font-variant-emoji: normal;&quot;&gt;y &lt;/span&gt;&lt;span style=&quot;font-family: Verdana; font-variant-numeric: normal; font-variant-east-asian: normal; font-variant-alternates: normal; font-variant-position: normal; font-variant-emoji: normal;&quot;&gt;contraseña&lt;/span&gt;&lt;span style=&quot;font-family: Verdana; font-variant-numeric: normal; font-variant-east-asian: normal; font-variant-alternates: normal; font-variant-position: normal; font-variant-emoji: normal;&quot;&gt;.&lt;/span&gt;&lt;/font&gt;&lt;/p&gt;" style="shape=partialRectangle;html=1;whiteSpace=wrap;connectable=0;strokeColor=inherit;overflow=hidden;fillColor=none;top=0;left=0;bottom=0;right=0;pointerEvents=1;align=left;" vertex="1" parent="im5-o7usMu12Ao5SWC0J-5">
          <mxGeometry x="262" width="509" height="67" as="geometry">
            <mxRectangle width="509" height="67" as="alternateBounds" />
          </mxGeometry>
        </mxCell>
        <mxCell id="im5-o7usMu12Ao5SWC0J-8" value="" style="shape=tableRow;horizontal=0;startSize=0;swimlaneHead=0;swimlaneBody=0;strokeColor=inherit;top=0;left=0;bottom=0;right=0;collapsible=0;dropTarget=0;fillColor=none;points=[[0,0.5],[1,0.5]];portConstraint=eastwest;" vertex="1" parent="im5-o7usMu12Ao5SWC0J-1">
          <mxGeometry y="132" width="771" height="65" as="geometry" />
        </mxCell>
        <mxCell id="im5-o7usMu12Ao5SWC0J-9" value="&lt;b&gt;Actores&lt;/b&gt;" style="shape=partialRectangle;html=1;whiteSpace=wrap;connectable=0;strokeColor=inherit;overflow=hidden;fillColor=none;top=0;left=0;bottom=0;right=0;pointerEvents=1;" vertex="1" parent="im5-o7usMu12Ao5SWC0J-8">
          <mxGeometry width="262" height="65" as="geometry">
            <mxRectangle width="262" height="65" as="alternateBounds" />
          </mxGeometry>
        </mxCell>
        <mxCell id="im5-o7usMu12Ao5SWC0J-10" value="Alumno registrado" style="shape=partialRectangle;html=1;whiteSpace=wrap;connectable=0;strokeColor=inherit;overflow=hidden;fillColor=none;top=0;left=0;bottom=0;right=0;pointerEvents=1;align=left;" vertex="1" parent="im5-o7usMu12Ao5SWC0J-8">
          <mxGeometry x="262" width="509" height="65" as="geometry">
            <mxRectangle width="509" height="65" as="alternateBounds" />
          </mxGeometry>
        </mxCell>
        <mxCell id="im5-o7usMu12Ao5SWC0J-11" value="" style="shape=tableRow;horizontal=0;startSize=0;swimlaneHead=0;swimlaneBody=0;strokeColor=inherit;top=0;left=0;bottom=0;right=0;collapsible=0;dropTarget=0;fillColor=none;points=[[0,0.5],[1,0.5]];portConstraint=eastwest;" vertex="1" parent="im5-o7usMu12Ao5SWC0J-1">
          <mxGeometry y="197" width="771" height="67" as="geometry" />
        </mxCell>
        <mxCell id="im5-o7usMu12Ao5SWC0J-12" value="&lt;b&gt;Precondiciones&lt;/b&gt;" style="shape=partialRectangle;html=1;whiteSpace=wrap;connectable=0;strokeColor=inherit;overflow=hidden;fillColor=none;top=0;left=0;bottom=0;right=0;pointerEvents=1;" vertex="1" parent="im5-o7usMu12Ao5SWC0J-11">
          <mxGeometry width="262" height="67" as="geometry">
            <mxRectangle width="262" height="67" as="alternateBounds" />
          </mxGeometry>
        </mxCell>
        <mxCell id="im5-o7usMu12Ao5SWC0J-13" value="-" style="shape=partialRectangle;html=1;whiteSpace=wrap;connectable=0;strokeColor=inherit;overflow=hidden;fillColor=none;top=0;left=0;bottom=0;right=0;pointerEvents=1;align=left;" vertex="1" parent="im5-o7usMu12Ao5SWC0J-11">
          <mxGeometry x="262" width="509" height="67" as="geometry">
            <mxRectangle width="509" height="67" as="alternateBounds" />
          </mxGeometry>
        </mxCell>
        <mxCell id="im5-o7usMu12Ao5SWC0J-14" value="" style="shape=tableRow;horizontal=0;startSize=0;swimlaneHead=0;swimlaneBody=0;strokeColor=inherit;top=0;left=0;bottom=0;right=0;collapsible=0;dropTarget=0;fillColor=none;points=[[0,0.5],[1,0.5]];portConstraint=eastwest;" vertex="1" parent="im5-o7usMu12Ao5SWC0J-1">
          <mxGeometry y="264" width="771" height="40" as="geometry" />
        </mxCell>
        <mxCell id="im5-o7usMu12Ao5SWC0J-15" value="" style="shape=partialRectangle;html=1;whiteSpace=wrap;connectable=0;strokeColor=inherit;overflow=hidden;fillColor=none;top=0;left=0;bottom=0;right=0;pointerEvents=1;" vertex="1" parent="im5-o7usMu12Ao5SWC0J-14">
          <mxGeometry width="262" height="40" as="geometry">
            <mxRectangle width="262" height="40" as="alternateBounds" />
          </mxGeometry>
        </mxCell>
        <mxCell id="im5-o7usMu12Ao5SWC0J-16" value="" style="shape=partialRectangle;html=1;whiteSpace=wrap;connectable=0;strokeColor=inherit;overflow=hidden;fillColor=none;top=0;left=0;bottom=0;right=0;pointerEvents=1;" vertex="1" parent="im5-o7usMu12Ao5SWC0J-14">
          <mxGeometry x="262" width="509" height="40" as="geometry">
            <mxRectangle width="509" height="40" as="alternateBounds" />
          </mxGeometry>
        </mxCell>
        <mxCell id="im5-o7usMu12Ao5SWC0J-17" value="" style="endArrow=none;html=1;rounded=0;exitX=0.704;exitY=0.998;exitDx=0;exitDy=0;exitPerimeter=0;entryX=0.686;entryY=0.05;entryDx=0;entryDy=0;entryPerimeter=0;" edge="1" parent="im5-o7usMu12Ao5SWC0J-1" target="im5-o7usMu12Ao5SWC0J-14">
          <mxGeometry width="50" height="50" relative="1" as="geometry">
            <mxPoint x="529.2539999999999" y="438.00199999999995" as="sourcePoint" />
            <mxPoint x="520.0019999999997" y="306.27" as="targetPoint" />
          </mxGeometry>
        </mxCell>
        <mxCell id="im5-o7usMu12Ao5SWC0J-18" value="" style="shape=tableRow;horizontal=0;startSize=0;swimlaneHead=0;swimlaneBody=0;strokeColor=inherit;top=0;left=0;bottom=0;right=0;collapsible=0;dropTarget=0;fillColor=none;points=[[0,0.5],[1,0.5]];portConstraint=eastwest;" vertex="1" parent="im5-o7usMu12Ao5SWC0J-1">
          <mxGeometry y="304" width="771" height="134" as="geometry" />
        </mxCell>
        <mxCell id="im5-o7usMu12Ao5SWC0J-19" value="&lt;b&gt;Curso normal&lt;/b&gt;" style="shape=partialRectangle;html=1;whiteSpace=wrap;connectable=0;strokeColor=inherit;overflow=hidden;fillColor=none;top=0;left=0;bottom=0;right=0;pointerEvents=1;" vertex="1" parent="im5-o7usMu12Ao5SWC0J-18">
          <mxGeometry width="262" height="134" as="geometry">
            <mxRectangle width="262" height="134" as="alternateBounds" />
          </mxGeometry>
        </mxCell>
        <mxCell id="im5-o7usMu12Ao5SWC0J-20" value="&lt;table&gt;&lt;tbody&gt;&lt;tr&gt;&lt;td&gt;&lt;br&gt;&lt;/td&gt;&lt;td&gt;&lt;br&gt;&lt;/td&gt;&lt;/tr&gt;&lt;/tbody&gt;&lt;/table&gt;" style="shape=partialRectangle;html=1;whiteSpace=wrap;connectable=0;strokeColor=inherit;overflow=hidden;fillColor=none;top=0;left=0;bottom=0;right=0;pointerEvents=1;" vertex="1" parent="im5-o7usMu12Ao5SWC0J-18">
          <mxGeometry x="262" width="509" height="134" as="geometry">
            <mxRectangle width="509" height="134" as="alternateBounds" />
          </mxGeometry>
        </mxCell>
        <mxCell id="im5-o7usMu12Ao5SWC0J-21" value="" style="shape=tableRow;horizontal=0;startSize=0;swimlaneHead=0;swimlaneBody=0;strokeColor=inherit;top=0;left=0;bottom=0;right=0;collapsible=0;dropTarget=0;fillColor=none;points=[[0,0.5],[1,0.5]];portConstraint=eastwest;" vertex="1" parent="im5-o7usMu12Ao5SWC0J-1">
          <mxGeometry y="438" width="771" height="67" as="geometry" />
        </mxCell>
        <mxCell id="im5-o7usMu12Ao5SWC0J-22" value="&lt;b&gt;Curso alterno&lt;/b&gt;" style="shape=partialRectangle;html=1;whiteSpace=wrap;connectable=0;strokeColor=inherit;overflow=hidden;fillColor=none;top=0;left=0;bottom=0;right=0;pointerEvents=1;" vertex="1" parent="im5-o7usMu12Ao5SWC0J-21">
          <mxGeometry width="262" height="67" as="geometry">
            <mxRectangle width="262" height="67" as="alternateBounds" />
          </mxGeometry>
        </mxCell>
        <mxCell id="im5-o7usMu12Ao5SWC0J-23" value="&lt;b&gt;Paso 4: &lt;/b&gt;El usuario o la contraseña no son validos. Se notifica al usuario. Ejecutamos paso 2" style="shape=partialRectangle;html=1;whiteSpace=wrap;connectable=0;strokeColor=inherit;overflow=hidden;fillColor=none;top=0;left=0;bottom=0;right=0;pointerEvents=1;" vertex="1" parent="im5-o7usMu12Ao5SWC0J-21">
          <mxGeometry x="262" width="509" height="67" as="geometry">
            <mxRectangle width="509" height="67" as="alternateBounds" />
          </mxGeometry>
        </mxCell>
        <mxCell id="im5-o7usMu12Ao5SWC0J-24" value="" style="shape=tableRow;horizontal=0;startSize=0;swimlaneHead=0;swimlaneBody=0;strokeColor=inherit;top=0;left=0;bottom=0;right=0;collapsible=0;dropTarget=0;fillColor=none;points=[[0,0.5],[1,0.5]];portConstraint=eastwest;" vertex="1" parent="im5-o7usMu12Ao5SWC0J-1">
          <mxGeometry y="505" width="771" height="65" as="geometry" />
        </mxCell>
        <mxCell id="im5-o7usMu12Ao5SWC0J-25" value="&lt;b&gt;Postcondicion&lt;/b&gt;" style="shape=partialRectangle;html=1;whiteSpace=wrap;connectable=0;strokeColor=inherit;overflow=hidden;fillColor=none;top=0;left=0;bottom=0;right=0;pointerEvents=1;" vertex="1" parent="im5-o7usMu12Ao5SWC0J-24">
          <mxGeometry width="262" height="65" as="geometry">
            <mxRectangle width="262" height="65" as="alternateBounds" />
          </mxGeometry>
        </mxCell>
        <mxCell id="im5-o7usMu12Ao5SWC0J-26" value="La sesion es iniciada correctamente" style="shape=partialRectangle;html=1;whiteSpace=wrap;connectable=0;strokeColor=inherit;overflow=hidden;fillColor=none;top=0;left=0;bottom=0;right=0;pointerEvents=1;align=left;" vertex="1" parent="im5-o7usMu12Ao5SWC0J-24">
          <mxGeometry x="262" width="509" height="65" as="geometry">
            <mxRectangle width="509" height="65" as="alternateBounds" />
          </mxGeometry>
        </mxCell>
        <mxCell id="im5-o7usMu12Ao5SWC0J-27" value="&lt;b&gt;Acciones del actor&lt;/b&gt;" style="text;html=1;align=center;verticalAlign=middle;whiteSpace=wrap;rounded=0;movable=1;resizable=1;rotatable=1;deletable=1;editable=1;locked=0;connectable=1;" vertex="1" parent="1">
          <mxGeometry x="470" y="560" width="180" height="30" as="geometry" />
        </mxCell>
        <mxCell id="im5-o7usMu12Ao5SWC0J-28" value="&lt;b&gt;Acciones del sistema&lt;/b&gt;" style="text;html=1;align=center;verticalAlign=middle;whiteSpace=wrap;rounded=0;movable=1;resizable=1;rotatable=1;deletable=1;editable=1;locked=0;connectable=1;" vertex="1" parent="1">
          <mxGeometry x="720" y="560" width="160" height="30" as="geometry" />
        </mxCell>
        <mxCell id="im5-o7usMu12Ao5SWC0J-55" value="" style="shape=table;startSize=0;container=1;collapsible=0;childLayout=tableLayout;" vertex="1" parent="1">
          <mxGeometry x="1000" y="290" width="771" height="570" as="geometry" />
        </mxCell>
        <mxCell id="im5-o7usMu12Ao5SWC0J-56" value="" style="shape=tableRow;horizontal=0;startSize=0;swimlaneHead=0;swimlaneBody=0;strokeColor=inherit;top=0;left=0;bottom=0;right=0;collapsible=0;dropTarget=0;fillColor=none;points=[[0,0.5],[1,0.5]];portConstraint=eastwest;" vertex="1" parent="im5-o7usMu12Ao5SWC0J-55">
          <mxGeometry width="771" height="65" as="geometry" />
        </mxCell>
        <mxCell id="im5-o7usMu12Ao5SWC0J-57" value="&lt;b&gt;Nombre del caso de uso&lt;/b&gt;" style="shape=partialRectangle;html=1;whiteSpace=wrap;connectable=0;strokeColor=inherit;overflow=hidden;fillColor=none;top=0;left=0;bottom=0;right=0;pointerEvents=1;" vertex="1" parent="im5-o7usMu12Ao5SWC0J-56">
          <mxGeometry width="262" height="65" as="geometry">
            <mxRectangle width="262" height="65" as="alternateBounds" />
          </mxGeometry>
        </mxCell>
        <mxCell id="im5-o7usMu12Ao5SWC0J-58" value="&amp;nbsp;Cerrar sesion" style="shape=partialRectangle;html=1;whiteSpace=wrap;connectable=0;strokeColor=inherit;overflow=hidden;fillColor=none;top=0;left=0;bottom=0;right=0;pointerEvents=1;align=left;" vertex="1" parent="im5-o7usMu12Ao5SWC0J-56">
          <mxGeometry x="262" width="509" height="65" as="geometry">
            <mxRectangle width="509" height="65" as="alternateBounds" />
          </mxGeometry>
        </mxCell>
        <mxCell id="im5-o7usMu12Ao5SWC0J-59" value="" style="shape=tableRow;horizontal=0;startSize=0;swimlaneHead=0;swimlaneBody=0;strokeColor=inherit;top=0;left=0;bottom=0;right=0;collapsible=0;dropTarget=0;fillColor=none;points=[[0,0.5],[1,0.5]];portConstraint=eastwest;" vertex="1" parent="im5-o7usMu12Ao5SWC0J-55">
          <mxGeometry y="65" width="771" height="67" as="geometry" />
        </mxCell>
        <mxCell id="im5-o7usMu12Ao5SWC0J-60" value="&lt;b&gt;Descripcion&lt;/b&gt;" style="shape=partialRectangle;html=1;whiteSpace=wrap;connectable=0;strokeColor=inherit;overflow=hidden;fillColor=none;top=0;left=0;bottom=0;right=0;pointerEvents=1;" vertex="1" parent="im5-o7usMu12Ao5SWC0J-59">
          <mxGeometry width="262" height="67" as="geometry">
            <mxRectangle width="262" height="67" as="alternateBounds" />
          </mxGeometry>
        </mxCell>
        <mxCell id="im5-o7usMu12Ao5SWC0J-61" value="Se especifica el modo en el que un usuario registrado cierra sesion" style="shape=partialRectangle;html=1;whiteSpace=wrap;connectable=0;strokeColor=inherit;overflow=hidden;fillColor=none;top=0;left=0;bottom=0;right=0;pointerEvents=1;align=left;" vertex="1" parent="im5-o7usMu12Ao5SWC0J-59">
          <mxGeometry x="262" width="509" height="67" as="geometry">
            <mxRectangle width="509" height="67" as="alternateBounds" />
          </mxGeometry>
        </mxCell>
        <mxCell id="im5-o7usMu12Ao5SWC0J-62" value="" style="shape=tableRow;horizontal=0;startSize=0;swimlaneHead=0;swimlaneBody=0;strokeColor=inherit;top=0;left=0;bottom=0;right=0;collapsible=0;dropTarget=0;fillColor=none;points=[[0,0.5],[1,0.5]];portConstraint=eastwest;" vertex="1" parent="im5-o7usMu12Ao5SWC0J-55">
          <mxGeometry y="132" width="771" height="65" as="geometry" />
        </mxCell>
        <mxCell id="im5-o7usMu12Ao5SWC0J-63" value="&lt;b&gt;Actores&lt;/b&gt;" style="shape=partialRectangle;html=1;whiteSpace=wrap;connectable=0;strokeColor=inherit;overflow=hidden;fillColor=none;top=0;left=0;bottom=0;right=0;pointerEvents=1;" vertex="1" parent="im5-o7usMu12Ao5SWC0J-62">
          <mxGeometry width="262" height="65" as="geometry">
            <mxRectangle width="262" height="65" as="alternateBounds" />
          </mxGeometry>
        </mxCell>
        <mxCell id="im5-o7usMu12Ao5SWC0J-64" value="Alumno registrado&lt;span style=&quot;white-space: pre;&quot;&gt;&#x9;&lt;/span&gt;" style="shape=partialRectangle;html=1;whiteSpace=wrap;connectable=0;strokeColor=inherit;overflow=hidden;fillColor=none;top=0;left=0;bottom=0;right=0;pointerEvents=1;align=left;" vertex="1" parent="im5-o7usMu12Ao5SWC0J-62">
          <mxGeometry x="262" width="509" height="65" as="geometry">
            <mxRectangle width="509" height="65" as="alternateBounds" />
          </mxGeometry>
        </mxCell>
        <mxCell id="im5-o7usMu12Ao5SWC0J-65" value="" style="shape=tableRow;horizontal=0;startSize=0;swimlaneHead=0;swimlaneBody=0;strokeColor=inherit;top=0;left=0;bottom=0;right=0;collapsible=0;dropTarget=0;fillColor=none;points=[[0,0.5],[1,0.5]];portConstraint=eastwest;" vertex="1" parent="im5-o7usMu12Ao5SWC0J-55">
          <mxGeometry y="197" width="771" height="67" as="geometry" />
        </mxCell>
        <mxCell id="im5-o7usMu12Ao5SWC0J-66" value="&lt;b&gt;Precondiciones&lt;/b&gt;" style="shape=partialRectangle;html=1;whiteSpace=wrap;connectable=0;strokeColor=inherit;overflow=hidden;fillColor=none;top=0;left=0;bottom=0;right=0;pointerEvents=1;" vertex="1" parent="im5-o7usMu12Ao5SWC0J-65">
          <mxGeometry width="262" height="67" as="geometry">
            <mxRectangle width="262" height="67" as="alternateBounds" />
          </mxGeometry>
        </mxCell>
        <mxCell id="im5-o7usMu12Ao5SWC0J-67" value="&amp;nbsp;Tener una sesion activa" style="shape=partialRectangle;html=1;whiteSpace=wrap;connectable=0;strokeColor=inherit;overflow=hidden;fillColor=none;top=0;left=0;bottom=0;right=0;pointerEvents=1;align=left;" vertex="1" parent="im5-o7usMu12Ao5SWC0J-65">
          <mxGeometry x="262" width="509" height="67" as="geometry">
            <mxRectangle width="509" height="67" as="alternateBounds" />
          </mxGeometry>
        </mxCell>
        <mxCell id="im5-o7usMu12Ao5SWC0J-68" value="" style="shape=tableRow;horizontal=0;startSize=0;swimlaneHead=0;swimlaneBody=0;strokeColor=inherit;top=0;left=0;bottom=0;right=0;collapsible=0;dropTarget=0;fillColor=none;points=[[0,0.5],[1,0.5]];portConstraint=eastwest;" vertex="1" parent="im5-o7usMu12Ao5SWC0J-55">
          <mxGeometry y="264" width="771" height="40" as="geometry" />
        </mxCell>
        <mxCell id="im5-o7usMu12Ao5SWC0J-69" value="" style="shape=partialRectangle;html=1;whiteSpace=wrap;connectable=0;strokeColor=inherit;overflow=hidden;fillColor=none;top=0;left=0;bottom=0;right=0;pointerEvents=1;" vertex="1" parent="im5-o7usMu12Ao5SWC0J-68">
          <mxGeometry width="262" height="40" as="geometry">
            <mxRectangle width="262" height="40" as="alternateBounds" />
          </mxGeometry>
        </mxCell>
        <mxCell id="im5-o7usMu12Ao5SWC0J-70" value="" style="shape=partialRectangle;html=1;whiteSpace=wrap;connectable=0;strokeColor=inherit;overflow=hidden;fillColor=none;top=0;left=0;bottom=0;right=0;pointerEvents=1;" vertex="1" parent="im5-o7usMu12Ao5SWC0J-68">
          <mxGeometry x="262" width="509" height="40" as="geometry">
            <mxRectangle width="509" height="40" as="alternateBounds" />
          </mxGeometry>
        </mxCell>
        <mxCell id="im5-o7usMu12Ao5SWC0J-71" value="" style="endArrow=none;html=1;rounded=0;exitX=0.704;exitY=0.998;exitDx=0;exitDy=0;exitPerimeter=0;entryX=0.686;entryY=0.05;entryDx=0;entryDy=0;entryPerimeter=0;" edge="1" parent="im5-o7usMu12Ao5SWC0J-55" target="im5-o7usMu12Ao5SWC0J-68">
          <mxGeometry width="50" height="50" relative="1" as="geometry">
            <mxPoint x="529.2539999999999" y="438.00199999999995" as="sourcePoint" />
            <mxPoint x="520.0019999999997" y="306.27" as="targetPoint" />
          </mxGeometry>
        </mxCell>
        <mxCell id="im5-o7usMu12Ao5SWC0J-72" value="" style="shape=tableRow;horizontal=0;startSize=0;swimlaneHead=0;swimlaneBody=0;strokeColor=inherit;top=0;left=0;bottom=0;right=0;collapsible=0;dropTarget=0;fillColor=none;points=[[0,0.5],[1,0.5]];portConstraint=eastwest;" vertex="1" parent="im5-o7usMu12Ao5SWC0J-55">
          <mxGeometry y="304" width="771" height="134" as="geometry" />
        </mxCell>
        <mxCell id="im5-o7usMu12Ao5SWC0J-73" value="&lt;b&gt;Curso normal&lt;/b&gt;" style="shape=partialRectangle;html=1;whiteSpace=wrap;connectable=0;strokeColor=inherit;overflow=hidden;fillColor=none;top=0;left=0;bottom=0;right=0;pointerEvents=1;" vertex="1" parent="im5-o7usMu12Ao5SWC0J-72">
          <mxGeometry width="262" height="134" as="geometry">
            <mxRectangle width="262" height="134" as="alternateBounds" />
          </mxGeometry>
        </mxCell>
        <mxCell id="im5-o7usMu12Ao5SWC0J-74" value="&lt;table&gt;&lt;tbody&gt;&lt;tr&gt;&lt;td&gt;&lt;br&gt;&lt;/td&gt;&lt;td&gt;&lt;br&gt;&lt;/td&gt;&lt;/tr&gt;&lt;/tbody&gt;&lt;/table&gt;" style="shape=partialRectangle;html=1;whiteSpace=wrap;connectable=0;strokeColor=inherit;overflow=hidden;fillColor=none;top=0;left=0;bottom=0;right=0;pointerEvents=1;" vertex="1" parent="im5-o7usMu12Ao5SWC0J-72">
          <mxGeometry x="262" width="509" height="134" as="geometry">
            <mxRectangle width="509" height="134" as="alternateBounds" />
          </mxGeometry>
        </mxCell>
        <mxCell id="im5-o7usMu12Ao5SWC0J-75" value="" style="shape=tableRow;horizontal=0;startSize=0;swimlaneHead=0;swimlaneBody=0;strokeColor=inherit;top=0;left=0;bottom=0;right=0;collapsible=0;dropTarget=0;fillColor=none;points=[[0,0.5],[1,0.5]];portConstraint=eastwest;" vertex="1" parent="im5-o7usMu12Ao5SWC0J-55">
          <mxGeometry y="438" width="771" height="67" as="geometry" />
        </mxCell>
        <mxCell id="im5-o7usMu12Ao5SWC0J-76" value="&lt;b&gt;Curso alterno&lt;/b&gt;" style="shape=partialRectangle;html=1;whiteSpace=wrap;connectable=0;strokeColor=inherit;overflow=hidden;fillColor=none;top=0;left=0;bottom=0;right=0;pointerEvents=1;" vertex="1" parent="im5-o7usMu12Ao5SWC0J-75">
          <mxGeometry width="262" height="67" as="geometry">
            <mxRectangle width="262" height="67" as="alternateBounds" />
          </mxGeometry>
        </mxCell>
        <mxCell id="im5-o7usMu12Ao5SWC0J-77" value="&lt;b&gt;Paso 3: &lt;/b&gt;El alumno presiona &quot;cancelar&quot;. Se cancela el cierre de sesion. Fin del caso de uso.&lt;b&gt;&amp;nbsp;&lt;/b&gt;" style="shape=partialRectangle;html=1;whiteSpace=wrap;connectable=0;strokeColor=inherit;overflow=hidden;fillColor=none;top=0;left=0;bottom=0;right=0;pointerEvents=1;" vertex="1" parent="im5-o7usMu12Ao5SWC0J-75">
          <mxGeometry x="262" width="509" height="67" as="geometry">
            <mxRectangle width="509" height="67" as="alternateBounds" />
          </mxGeometry>
        </mxCell>
        <mxCell id="im5-o7usMu12Ao5SWC0J-78" value="" style="shape=tableRow;horizontal=0;startSize=0;swimlaneHead=0;swimlaneBody=0;strokeColor=inherit;top=0;left=0;bottom=0;right=0;collapsible=0;dropTarget=0;fillColor=none;points=[[0,0.5],[1,0.5]];portConstraint=eastwest;" vertex="1" parent="im5-o7usMu12Ao5SWC0J-55">
          <mxGeometry y="505" width="771" height="65" as="geometry" />
        </mxCell>
        <mxCell id="im5-o7usMu12Ao5SWC0J-79" value="&lt;b&gt;Postcondicion&lt;/b&gt;" style="shape=partialRectangle;html=1;whiteSpace=wrap;connectable=0;strokeColor=inherit;overflow=hidden;fillColor=none;top=0;left=0;bottom=0;right=0;pointerEvents=1;" vertex="1" parent="im5-o7usMu12Ao5SWC0J-78">
          <mxGeometry width="262" height="65" as="geometry">
            <mxRectangle width="262" height="65" as="alternateBounds" />
          </mxGeometry>
        </mxCell>
        <mxCell id="im5-o7usMu12Ao5SWC0J-80" value="La sesion ha sido cerrada, las opciones del usuario quedan desabilitadas y se eliminan los datos de la sesion.&amp;nbsp;" style="shape=partialRectangle;html=1;whiteSpace=wrap;connectable=0;strokeColor=inherit;overflow=hidden;fillColor=none;top=0;left=0;bottom=0;right=0;pointerEvents=1;align=left;" vertex="1" parent="im5-o7usMu12Ao5SWC0J-78">
          <mxGeometry x="262" width="509" height="65" as="geometry">
            <mxRectangle width="509" height="65" as="alternateBounds" />
          </mxGeometry>
        </mxCell>
        <mxCell id="im5-o7usMu12Ao5SWC0J-81" value="&lt;b&gt;Acciones del actor&lt;/b&gt;" style="text;html=1;align=center;verticalAlign=middle;whiteSpace=wrap;rounded=0;movable=1;resizable=1;rotatable=1;deletable=1;editable=1;locked=0;connectable=1;" vertex="1" parent="1">
          <mxGeometry x="1310" y="560" width="180" height="30" as="geometry" />
        </mxCell>
        <mxCell id="im5-o7usMu12Ao5SWC0J-82" value="&lt;b&gt;Acciones del sistema&lt;/b&gt;" style="text;html=1;align=center;verticalAlign=middle;whiteSpace=wrap;rounded=0;movable=1;resizable=1;rotatable=1;deletable=1;editable=1;locked=0;connectable=1;" vertex="1" parent="1">
          <mxGeometry x="1580" y="560" width="160" height="30" as="geometry" />
        </mxCell>
        <mxCell id="im5-o7usMu12Ao5SWC0J-86" value="&lt;b&gt;Paso 1:&lt;/b&gt; El alumno presiona &quot;Iniciar sesion&lt;br&gt;&lt;b&gt;Paso 3: &lt;/b&gt;El alumno registrado ingresa el nombre de usuario y contraseña" style="text;html=1;align=center;verticalAlign=middle;whiteSpace=wrap;rounded=0;" vertex="1" parent="1">
          <mxGeometry x="440" y="600" width="260" height="130" as="geometry" />
        </mxCell>
        <mxCell id="im5-o7usMu12Ao5SWC0J-87" value="&lt;b&gt;Paso 2:&lt;/b&gt; Se solicita al usuario el usuario y contraseña&lt;div&gt;&lt;b&gt;Paso 4:&lt;/b&gt; Se verifica nombre de usuario y contraseña&lt;/div&gt;&lt;div&gt;&lt;b&gt;Paso 5:&lt;/b&gt; Se registra la sesion iniciada y se habilita las acciones del alumno registrado&lt;/div&gt;" style="text;html=1;align=center;verticalAlign=middle;whiteSpace=wrap;rounded=0;" vertex="1" parent="1">
          <mxGeometry x="710" y="610" width="220" height="110" as="geometry" />
        </mxCell>
        <mxCell id="im5-o7usMu12Ao5SWC0J-114" value="&lt;b&gt;Paso 1:&lt;/b&gt; El alumno presiona &quot;Cerrar sesion&quot;&lt;div&gt;&lt;b&gt;Paso 3:&lt;/b&gt;&amp;nbsp;El usuario presiona &quot;Confirmar &quot;&lt;br&gt;&lt;div&gt;&lt;br&gt;&lt;/div&gt;&lt;/div&gt;" style="text;html=1;align=center;verticalAlign=middle;whiteSpace=wrap;rounded=0;" vertex="1" parent="1">
          <mxGeometry x="1280" y="600" width="240" height="120" as="geometry" />
        </mxCell>
        <mxCell id="im5-o7usMu12Ao5SWC0J-115" value="&lt;b&gt;Paso 2:&lt;/b&gt; Se solicita confirmacion de cierre de sesion&lt;div&gt;&lt;div&gt;&lt;b&gt;Paso 4:&lt;/b&gt; se efectua el cierre de sesion y queda&amp;nbsp;inhabilitadas las acciones del usuario registrado.&lt;/div&gt;&lt;/div&gt;" style="text;html=1;align=center;verticalAlign=middle;whiteSpace=wrap;rounded=0;" vertex="1" parent="1">
          <mxGeometry x="1531" y="600" width="240" height="120" as="geometry" />
        </mxCell>
        <mxCell id="im5-o7usMu12Ao5SWC0J-116" value="" style="shape=table;startSize=0;container=1;collapsible=0;childLayout=tableLayout;" vertex="1" parent="1">
          <mxGeometry x="170" y="900" width="771" height="565" as="geometry" />
        </mxCell>
        <mxCell id="im5-o7usMu12Ao5SWC0J-117" value="" style="shape=tableRow;horizontal=0;startSize=0;swimlaneHead=0;swimlaneBody=0;strokeColor=inherit;top=0;left=0;bottom=0;right=0;collapsible=0;dropTarget=0;fillColor=none;points=[[0,0.5],[1,0.5]];portConstraint=eastwest;" vertex="1" parent="im5-o7usMu12Ao5SWC0J-116">
          <mxGeometry width="771" height="65" as="geometry" />
        </mxCell>
        <mxCell id="im5-o7usMu12Ao5SWC0J-118" value="&lt;b&gt;Nombre del caso de uso&lt;/b&gt;" style="shape=partialRectangle;html=1;whiteSpace=wrap;connectable=0;strokeColor=inherit;overflow=hidden;fillColor=none;top=0;left=0;bottom=0;right=0;pointerEvents=1;" vertex="1" parent="im5-o7usMu12Ao5SWC0J-117">
          <mxGeometry width="260" height="65" as="geometry">
            <mxRectangle width="260" height="65" as="alternateBounds" />
          </mxGeometry>
        </mxCell>
        <mxCell id="im5-o7usMu12Ao5SWC0J-119" value="&lt;font style=&quot;font-size: 14px;&quot;&gt;&amp;nbsp;Registrar&amp;nbsp;&lt;/font&gt;" style="shape=partialRectangle;html=1;whiteSpace=wrap;connectable=0;strokeColor=inherit;overflow=hidden;fillColor=none;top=0;left=0;bottom=0;right=0;pointerEvents=1;align=left;" vertex="1" parent="im5-o7usMu12Ao5SWC0J-117">
          <mxGeometry x="260" width="511" height="65" as="geometry">
            <mxRectangle width="511" height="65" as="alternateBounds" />
          </mxGeometry>
        </mxCell>
        <mxCell id="im5-o7usMu12Ao5SWC0J-120" value="" style="shape=tableRow;horizontal=0;startSize=0;swimlaneHead=0;swimlaneBody=0;strokeColor=inherit;top=0;left=0;bottom=0;right=0;collapsible=0;dropTarget=0;fillColor=none;points=[[0,0.5],[1,0.5]];portConstraint=eastwest;" vertex="1" parent="im5-o7usMu12Ao5SWC0J-116">
          <mxGeometry y="65" width="771" height="67" as="geometry" />
        </mxCell>
        <mxCell id="im5-o7usMu12Ao5SWC0J-121" value="&lt;b&gt;Descripcion&lt;/b&gt;" style="shape=partialRectangle;html=1;whiteSpace=wrap;connectable=0;strokeColor=inherit;overflow=hidden;fillColor=none;top=0;left=0;bottom=0;right=0;pointerEvents=1;" vertex="1" parent="im5-o7usMu12Ao5SWC0J-120">
          <mxGeometry width="260" height="67" as="geometry">
            <mxRectangle width="260" height="67" as="alternateBounds" />
          </mxGeometry>
        </mxCell>
        <mxCell id="im5-o7usMu12Ao5SWC0J-122" value="&lt;p style=&quot;language:es-MX;line-height:normal;margin-top:0pt;margin-bottom:0pt;&lt;br/&gt;margin-left:0in;margin-right:0in;text-indent:0in;text-align:justify;text-justify:&lt;br/&gt;inter-ideograph;direction:ltr;unicode-bidi:embed&quot;&gt;&lt;font style=&quot;font-size: 12px;&quot;&gt;&lt;span style=&quot;font-family: Verdana; font-variant-numeric: normal; font-variant-east-asian: normal; font-variant-alternates: normal; font-variant-position: normal; font-variant-emoji: normal;&quot;&gt;Especifica&amp;nbsp;&lt;/span&gt;&lt;span style=&quot;font-family: Verdana; font-variant-numeric: normal; font-variant-east-asian: normal; font-variant-alternates: normal; font-variant-position: normal; font-variant-emoji: normal;&quot;&gt;el&amp;nbsp;&lt;/span&gt;&lt;span style=&quot;font-family: Verdana; font-variant-numeric: normal; font-variant-east-asian: normal; font-variant-alternates: normal; font-variant-position: normal; font-variant-emoji: normal;&quot;&gt;modo &lt;/span&gt;&lt;span style=&quot;font-family: Verdana; font-variant-numeric: normal; font-variant-east-asian: normal; font-variant-alternates: normal; font-variant-position: normal; font-variant-emoji: normal;&quot;&gt;en&amp;nbsp;&lt;/span&gt;&lt;span style=&quot;font-family: Verdana; font-variant-numeric: normal; font-variant-east-asian: normal; font-variant-alternates: normal; font-variant-position: normal; font-variant-emoji: normal;&quot;&gt;el&amp;nbsp;&lt;/span&gt;&lt;span style=&quot;font-family: Verdana; font-variant-numeric: normal; font-variant-east-asian: normal; font-variant-alternates: normal; font-variant-position: normal; font-variant-emoji: normal;&quot;&gt;que un &lt;/span&gt;&lt;span style=&quot;font-family: Verdana; font-variant-numeric: normal; font-variant-east-asian: normal; font-variant-alternates: normal; font-variant-position: normal; font-variant-emoji: normal;&quot;&gt;usuario no registrado&amp;nbsp; es&amp;nbsp;&lt;/span&gt;&lt;span style=&quot;font-family: Verdana; font-variant-numeric: normal; font-variant-east-asian: normal; font-variant-alternates: normal; font-variant-position: normal; font-variant-emoji: normal;&quot;&gt;registrado en el sistema.&lt;/span&gt;&lt;/font&gt;&lt;/p&gt;" style="shape=partialRectangle;html=1;whiteSpace=wrap;connectable=0;strokeColor=inherit;overflow=hidden;fillColor=none;top=0;left=0;bottom=0;right=0;pointerEvents=1;align=left;" vertex="1" parent="im5-o7usMu12Ao5SWC0J-120">
          <mxGeometry x="260" width="511" height="67" as="geometry">
            <mxRectangle width="511" height="67" as="alternateBounds" />
          </mxGeometry>
        </mxCell>
        <mxCell id="im5-o7usMu12Ao5SWC0J-123" value="" style="shape=tableRow;horizontal=0;startSize=0;swimlaneHead=0;swimlaneBody=0;strokeColor=inherit;top=0;left=0;bottom=0;right=0;collapsible=0;dropTarget=0;fillColor=none;points=[[0,0.5],[1,0.5]];portConstraint=eastwest;" vertex="1" parent="im5-o7usMu12Ao5SWC0J-116">
          <mxGeometry y="132" width="771" height="65" as="geometry" />
        </mxCell>
        <mxCell id="im5-o7usMu12Ao5SWC0J-124" value="&lt;b&gt;Actores&lt;/b&gt;" style="shape=partialRectangle;html=1;whiteSpace=wrap;connectable=0;strokeColor=inherit;overflow=hidden;fillColor=none;top=0;left=0;bottom=0;right=0;pointerEvents=1;" vertex="1" parent="im5-o7usMu12Ao5SWC0J-123">
          <mxGeometry width="260" height="65" as="geometry">
            <mxRectangle width="260" height="65" as="alternateBounds" />
          </mxGeometry>
        </mxCell>
        <mxCell id="im5-o7usMu12Ao5SWC0J-125" value="Alumno&amp;nbsp; no registrado" style="shape=partialRectangle;html=1;whiteSpace=wrap;connectable=0;strokeColor=inherit;overflow=hidden;fillColor=none;top=0;left=0;bottom=0;right=0;pointerEvents=1;align=left;" vertex="1" parent="im5-o7usMu12Ao5SWC0J-123">
          <mxGeometry x="260" width="511" height="65" as="geometry">
            <mxRectangle width="511" height="65" as="alternateBounds" />
          </mxGeometry>
        </mxCell>
        <mxCell id="im5-o7usMu12Ao5SWC0J-126" value="" style="shape=tableRow;horizontal=0;startSize=0;swimlaneHead=0;swimlaneBody=0;strokeColor=inherit;top=0;left=0;bottom=0;right=0;collapsible=0;dropTarget=0;fillColor=none;points=[[0,0.5],[1,0.5]];portConstraint=eastwest;" vertex="1" parent="im5-o7usMu12Ao5SWC0J-116">
          <mxGeometry y="197" width="771" height="67" as="geometry" />
        </mxCell>
        <mxCell id="im5-o7usMu12Ao5SWC0J-127" value="&lt;b&gt;Precondiciones&lt;/b&gt;" style="shape=partialRectangle;html=1;whiteSpace=wrap;connectable=0;strokeColor=inherit;overflow=hidden;fillColor=none;top=0;left=0;bottom=0;right=0;pointerEvents=1;" vertex="1" parent="im5-o7usMu12Ao5SWC0J-126">
          <mxGeometry width="260" height="67" as="geometry">
            <mxRectangle width="260" height="67" as="alternateBounds" />
          </mxGeometry>
        </mxCell>
        <mxCell id="im5-o7usMu12Ao5SWC0J-128" value="-" style="shape=partialRectangle;html=1;whiteSpace=wrap;connectable=0;strokeColor=inherit;overflow=hidden;fillColor=none;top=0;left=0;bottom=0;right=0;pointerEvents=1;align=left;" vertex="1" parent="im5-o7usMu12Ao5SWC0J-126">
          <mxGeometry x="260" width="511" height="67" as="geometry">
            <mxRectangle width="511" height="67" as="alternateBounds" />
          </mxGeometry>
        </mxCell>
        <mxCell id="im5-o7usMu12Ao5SWC0J-129" value="" style="shape=tableRow;horizontal=0;startSize=0;swimlaneHead=0;swimlaneBody=0;strokeColor=inherit;top=0;left=0;bottom=0;right=0;collapsible=0;dropTarget=0;fillColor=none;points=[[0,0.5],[1,0.5]];portConstraint=eastwest;" vertex="1" parent="im5-o7usMu12Ao5SWC0J-116">
          <mxGeometry y="264" width="771" height="40" as="geometry" />
        </mxCell>
        <mxCell id="im5-o7usMu12Ao5SWC0J-130" value="" style="shape=partialRectangle;html=1;whiteSpace=wrap;connectable=0;strokeColor=inherit;overflow=hidden;fillColor=none;top=0;left=0;bottom=0;right=0;pointerEvents=1;" vertex="1" parent="im5-o7usMu12Ao5SWC0J-129">
          <mxGeometry width="260" height="40" as="geometry">
            <mxRectangle width="260" height="40" as="alternateBounds" />
          </mxGeometry>
        </mxCell>
        <mxCell id="im5-o7usMu12Ao5SWC0J-131" value="" style="shape=partialRectangle;html=1;whiteSpace=wrap;connectable=0;strokeColor=inherit;overflow=hidden;fillColor=none;top=0;left=0;bottom=0;right=0;pointerEvents=1;" vertex="1" parent="im5-o7usMu12Ao5SWC0J-129">
          <mxGeometry x="260" width="511" height="40" as="geometry">
            <mxRectangle width="511" height="40" as="alternateBounds" />
          </mxGeometry>
        </mxCell>
        <mxCell id="im5-o7usMu12Ao5SWC0J-132" value="" style="endArrow=none;html=1;rounded=0;exitX=0.704;exitY=0.998;exitDx=0;exitDy=0;exitPerimeter=0;entryX=0.686;entryY=0.05;entryDx=0;entryDy=0;entryPerimeter=0;" edge="1" parent="im5-o7usMu12Ao5SWC0J-116" target="im5-o7usMu12Ao5SWC0J-129">
          <mxGeometry width="50" height="50" relative="1" as="geometry">
            <mxPoint x="529.2539999999999" y="438.00199999999995" as="sourcePoint" />
            <mxPoint x="520.0019999999997" y="306.27" as="targetPoint" />
          </mxGeometry>
        </mxCell>
        <mxCell id="im5-o7usMu12Ao5SWC0J-133" value="" style="shape=tableRow;horizontal=0;startSize=0;swimlaneHead=0;swimlaneBody=0;strokeColor=inherit;top=0;left=0;bottom=0;right=0;collapsible=0;dropTarget=0;fillColor=none;points=[[0,0.5],[1,0.5]];portConstraint=eastwest;" vertex="1" parent="im5-o7usMu12Ao5SWC0J-116">
          <mxGeometry y="304" width="771" height="134" as="geometry" />
        </mxCell>
        <mxCell id="im5-o7usMu12Ao5SWC0J-134" value="&lt;b&gt;Curso normal&lt;/b&gt;" style="shape=partialRectangle;html=1;whiteSpace=wrap;connectable=0;strokeColor=inherit;overflow=hidden;fillColor=none;top=0;left=0;bottom=0;right=0;pointerEvents=1;" vertex="1" parent="im5-o7usMu12Ao5SWC0J-133">
          <mxGeometry width="260" height="134" as="geometry">
            <mxRectangle width="260" height="134" as="alternateBounds" />
          </mxGeometry>
        </mxCell>
        <mxCell id="im5-o7usMu12Ao5SWC0J-135" value="&lt;table&gt;&lt;tbody&gt;&lt;tr&gt;&lt;td&gt;&lt;br&gt;&lt;/td&gt;&lt;td&gt;&lt;br&gt;&lt;/td&gt;&lt;/tr&gt;&lt;/tbody&gt;&lt;/table&gt;" style="shape=partialRectangle;html=1;whiteSpace=wrap;connectable=0;strokeColor=inherit;overflow=hidden;fillColor=none;top=0;left=0;bottom=0;right=0;pointerEvents=1;" vertex="1" parent="im5-o7usMu12Ao5SWC0J-133">
          <mxGeometry x="260" width="511" height="134" as="geometry">
            <mxRectangle width="511" height="134" as="alternateBounds" />
          </mxGeometry>
        </mxCell>
        <mxCell id="im5-o7usMu12Ao5SWC0J-136" value="" style="shape=tableRow;horizontal=0;startSize=0;swimlaneHead=0;swimlaneBody=0;strokeColor=inherit;top=0;left=0;bottom=0;right=0;collapsible=0;dropTarget=0;fillColor=none;points=[[0,0.5],[1,0.5]];portConstraint=eastwest;" vertex="1" parent="im5-o7usMu12Ao5SWC0J-116">
          <mxGeometry y="438" width="771" height="62" as="geometry" />
        </mxCell>
        <mxCell id="im5-o7usMu12Ao5SWC0J-137" value="&lt;b&gt;Curso alterno&lt;/b&gt;" style="shape=partialRectangle;html=1;whiteSpace=wrap;connectable=0;strokeColor=inherit;overflow=hidden;fillColor=none;top=0;left=0;bottom=0;right=0;pointerEvents=1;" vertex="1" parent="im5-o7usMu12Ao5SWC0J-136">
          <mxGeometry width="260" height="62" as="geometry">
            <mxRectangle width="260" height="62" as="alternateBounds" />
          </mxGeometry>
        </mxCell>
        <mxCell id="im5-o7usMu12Ao5SWC0J-138" value="&lt;b&gt;Paso 6:&lt;/b&gt; ya existe un usuario con el mismo nombre o la contraseña tene menos de 6 digitos.Se informa. Vuelve al paso 4." style="shape=partialRectangle;html=1;whiteSpace=wrap;connectable=0;strokeColor=inherit;overflow=hidden;fillColor=none;top=0;left=0;bottom=0;right=0;pointerEvents=1;align=left;" vertex="1" parent="im5-o7usMu12Ao5SWC0J-136">
          <mxGeometry x="260" width="511" height="62" as="geometry">
            <mxRectangle width="511" height="62" as="alternateBounds" />
          </mxGeometry>
        </mxCell>
        <mxCell id="im5-o7usMu12Ao5SWC0J-139" value="" style="shape=tableRow;horizontal=0;startSize=0;swimlaneHead=0;swimlaneBody=0;strokeColor=inherit;top=0;left=0;bottom=0;right=0;collapsible=0;dropTarget=0;fillColor=none;points=[[0,0.5],[1,0.5]];portConstraint=eastwest;" vertex="1" parent="im5-o7usMu12Ao5SWC0J-116">
          <mxGeometry y="500" width="771" height="65" as="geometry" />
        </mxCell>
        <mxCell id="im5-o7usMu12Ao5SWC0J-140" value="&lt;b&gt;Postcondicion&lt;/b&gt;" style="shape=partialRectangle;html=1;whiteSpace=wrap;connectable=0;strokeColor=inherit;overflow=hidden;fillColor=none;top=0;left=0;bottom=0;right=0;pointerEvents=1;" vertex="1" parent="im5-o7usMu12Ao5SWC0J-139">
          <mxGeometry width="260" height="65" as="geometry">
            <mxRectangle width="260" height="65" as="alternateBounds" />
          </mxGeometry>
        </mxCell>
        <mxCell id="im5-o7usMu12Ao5SWC0J-141" value="&amp;nbsp;Se registro un alumno nuevo." style="shape=partialRectangle;html=1;whiteSpace=wrap;connectable=0;strokeColor=inherit;overflow=hidden;fillColor=none;top=0;left=0;bottom=0;right=0;pointerEvents=1;align=left;" vertex="1" parent="im5-o7usMu12Ao5SWC0J-139">
          <mxGeometry x="260" width="511" height="65" as="geometry">
            <mxRectangle width="511" height="65" as="alternateBounds" />
          </mxGeometry>
        </mxCell>
        <mxCell id="im5-o7usMu12Ao5SWC0J-142" value="&lt;b&gt;Acciones del actor&lt;/b&gt;" style="text;html=1;align=center;verticalAlign=middle;whiteSpace=wrap;rounded=0;movable=1;resizable=1;rotatable=1;deletable=1;editable=1;locked=0;connectable=1;" vertex="1" parent="1">
          <mxGeometry x="480" y="1170" width="180" height="30" as="geometry" />
        </mxCell>
        <mxCell id="im5-o7usMu12Ao5SWC0J-143" value="&lt;b&gt;Acciones del sistema&lt;/b&gt;" style="text;html=1;align=center;verticalAlign=middle;whiteSpace=wrap;rounded=0;movable=1;resizable=1;rotatable=1;deletable=1;editable=1;locked=0;connectable=1;" vertex="1" parent="1">
          <mxGeometry x="740" y="1170" width="160" height="30" as="geometry" />
        </mxCell>
        <mxCell id="im5-o7usMu12Ao5SWC0J-144" value="&lt;div style=&quot;text-align: left;&quot;&gt;&lt;b style=&quot;background-color: transparent; color: light-dark(rgb(0, 0, 0), rgb(255, 255, 255));&quot;&gt;Paso 1:&lt;/b&gt;&lt;span style=&quot;background-color: transparent; color: light-dark(rgb(0, 0, 0), rgb(255, 255, 255));&quot;&gt; El alumno no registrado presiona &quot;registrar&quot;&lt;/span&gt;&lt;/div&gt;&lt;div style=&quot;text-align: left;&quot;&gt;&lt;b&gt;Paso 3: &lt;/b&gt;El alumno no registrado completa los datos requeridos&lt;/div&gt;&lt;div style=&quot;text-align: left;&quot;&gt;&lt;b&gt;Paso 5:&lt;/b&gt; El alumno no registrado completa los datos requeridos&lt;/div&gt;&lt;div&gt;&lt;div style=&quot;text-align: left;&quot;&gt;&lt;br&gt;&lt;/div&gt;&lt;div style=&quot;text-align: left;&quot;&gt;&lt;span style=&quot;color: rgba(0, 0, 0, 0); font-family: monospace; font-size: 0px; text-wrap-mode: nowrap;&quot;&gt;%3CmxGraphModel%3E%3Croot%3E%3CmxCell%20id%3D%220%22%2F%3E%3CmxCell%20id%3D%221%22%20parent%3D%220%22%2F%3E%3CmxCell%20id%3D%222%22%20value%3D%22%26lt%3Bb%26gt%3BAcciones%20del%20sistema%26lt%3B%2Fb%26gt%3B%22%20style%3D%22text%3Bhtml%3D1%3Balign%3Dcenter%3BverticalAlign%3Dmiddle%3BwhiteSpace%3Dwrap%3Brounded%3D0%3Bmovable%3D1%3Bresizable%3D1%3Brotatable%3D1%3Bdeletable%3D1%3Beditable%3D1%3Blocked%3D0%3Bconnectable%3D1%3B%22%20vertex%3D%221%22%20parent%3D%221%22%3E%3CmxGeometry%20x%3D%22720%22%20y%3D%22560%22%20width%3D%22160%22%20height%3D%2230%22%20as%3D%22geometry%22%2F%3E%3C%2FmxCell%3E%3C%2Froot%3E%3C%2FmxGraphModel%3E&lt;/span&gt;&lt;/div&gt;&lt;div style=&quot;text-align: left;&quot;&gt;&lt;span style=&quot;color: rgba(0, 0, 0, 0); font-family: monospace; font-size: 0px; text-wrap-mode: nowrap;&quot;&gt;&lt;br&gt;&lt;/span&gt;&lt;/div&gt;&lt;/div&gt;" style="text;html=1;align=center;verticalAlign=middle;whiteSpace=wrap;rounded=0;" vertex="1" parent="1">
          <mxGeometry x="440" y="1220" width="240" height="120" as="geometry" />
        </mxCell>
        <mxCell id="im5-o7usMu12Ao5SWC0J-145" value="&lt;div style=&quot;text-align: left;&quot;&gt;&lt;span style=&quot;background-color: transparent; color: light-dark(rgb(0, 0, 0), rgb(255, 255, 255));&quot;&gt;&lt;b&gt;Paso 2:&lt;/b&gt; Se solicita los datos personales&lt;/span&gt;&lt;/div&gt;&lt;div style=&quot;text-align: left;&quot;&gt;&lt;b&gt;Paso 4:&lt;/b&gt; El sistema solicita nombre de usuario unico y una contraseña de almenos 6 digitos.&lt;/div&gt;&lt;div style=&quot;text-align: left;&quot;&gt;&lt;b&gt;Paso 6: &lt;/b&gt;el sistema verifica que no exista el usuario y que la contraseña tenga como minimo 6 digitos&lt;/div&gt;&lt;div style=&quot;text-align: left;&quot;&gt;&lt;b&gt;Paso 7:&lt;/b&gt; Se registra el alta del nuevo alumno&lt;/div&gt;&lt;div&gt;&lt;br&gt;&lt;/div&gt;&lt;div&gt;&lt;div&gt;&lt;span style=&quot;color: rgba(0, 0, 0, 0); font-family: monospace; font-size: 0px; text-align: start; text-wrap-mode: nowrap;&quot;&gt;%3CmxGraphModel%3E%3Croot%3E%3CmxCell%20id%3D%220%22%2F%3E%3CmxCell%20id%3D%221%22%20parent%3D%220%22%2F%3E%3CmxCell%20id%3D%222%22%20value%3D%22%26lt%3Bb%26gt%3BAcciones%20del%20sistema%26lt%3B%2Fb%26gt%3B%22%20style%3D%22text%3Bhtml%3D1%3Balign%3Dcenter%3BverticalAlign%3Dmiddle%3BwhiteSpace%3Dwrap%3Brounded%3D0%3Bmovable%3D1%3Bresizable%3D1%3Brotatable%3D1%3Bdeletable%3D1%3Beditable%3D1%3Blocked%3D0%3Bconnectable%3D1%3B%22%20vertex%3D%221%22%20parent%3D%221%22%3E%3CmxGeometry%20x%3D%22720%22%20y%3D%22560%22%20width%3D%22160%22%20height%3D%2230%22%20as%3D%22geometry%22%2F%3E%3C%2FmxCell%3E%3C%2Froot%3E%3C%2FmxGraphModel%3E&lt;/span&gt;&lt;/div&gt;&lt;/div&gt;" style="text;html=1;align=center;verticalAlign=middle;whiteSpace=wrap;rounded=0;" vertex="1" parent="1">
          <mxGeometry x="700" y="1230" width="240" height="120" as="geometry" />
        </mxCell>
        <mxCell id="im5-o7usMu12Ao5SWC0J-146" value="" style="shape=table;startSize=0;container=1;collapsible=0;childLayout=tableLayout;" vertex="1" parent="1">
          <mxGeometry x="990" y="900" width="771" height="570" as="geometry" />
        </mxCell>
        <mxCell id="im5-o7usMu12Ao5SWC0J-147" value="" style="shape=tableRow;horizontal=0;startSize=0;swimlaneHead=0;swimlaneBody=0;strokeColor=inherit;top=0;left=0;bottom=0;right=0;collapsible=0;dropTarget=0;fillColor=none;points=[[0,0.5],[1,0.5]];portConstraint=eastwest;" vertex="1" parent="im5-o7usMu12Ao5SWC0J-146">
          <mxGeometry width="771" height="65" as="geometry" />
        </mxCell>
        <mxCell id="im5-o7usMu12Ao5SWC0J-148" value="&lt;b&gt;Nombre del caso de uso&lt;/b&gt;" style="shape=partialRectangle;html=1;whiteSpace=wrap;connectable=0;strokeColor=inherit;overflow=hidden;fillColor=none;top=0;left=0;bottom=0;right=0;pointerEvents=1;" vertex="1" parent="im5-o7usMu12Ao5SWC0J-147">
          <mxGeometry width="262" height="65" as="geometry">
            <mxRectangle width="262" height="65" as="alternateBounds" />
          </mxGeometry>
        </mxCell>
        <mxCell id="im5-o7usMu12Ao5SWC0J-149" value="&amp;nbsp;Cargar carreras" style="shape=partialRectangle;html=1;whiteSpace=wrap;connectable=0;strokeColor=inherit;overflow=hidden;fillColor=none;top=0;left=0;bottom=0;right=0;pointerEvents=1;align=left;" vertex="1" parent="im5-o7usMu12Ao5SWC0J-147">
          <mxGeometry x="262" width="509" height="65" as="geometry">
            <mxRectangle width="509" height="65" as="alternateBounds" />
          </mxGeometry>
        </mxCell>
        <mxCell id="im5-o7usMu12Ao5SWC0J-150" value="" style="shape=tableRow;horizontal=0;startSize=0;swimlaneHead=0;swimlaneBody=0;strokeColor=inherit;top=0;left=0;bottom=0;right=0;collapsible=0;dropTarget=0;fillColor=none;points=[[0,0.5],[1,0.5]];portConstraint=eastwest;" vertex="1" parent="im5-o7usMu12Ao5SWC0J-146">
          <mxGeometry y="65" width="771" height="67" as="geometry" />
        </mxCell>
        <mxCell id="im5-o7usMu12Ao5SWC0J-151" value="&lt;b&gt;Descripcion&lt;/b&gt;" style="shape=partialRectangle;html=1;whiteSpace=wrap;connectable=0;strokeColor=inherit;overflow=hidden;fillColor=none;top=0;left=0;bottom=0;right=0;pointerEvents=1;" vertex="1" parent="im5-o7usMu12Ao5SWC0J-150">
          <mxGeometry width="262" height="67" as="geometry">
            <mxRectangle width="262" height="67" as="alternateBounds" />
          </mxGeometry>
        </mxCell>
        <mxCell id="im5-o7usMu12Ao5SWC0J-152" value="Este caso de uso describe el evento cuando un administrativo realiza el alta de una carrera" style="shape=partialRectangle;html=1;whiteSpace=wrap;connectable=0;strokeColor=inherit;overflow=hidden;fillColor=none;top=0;left=0;bottom=0;right=0;pointerEvents=1;align=left;" vertex="1" parent="im5-o7usMu12Ao5SWC0J-150">
          <mxGeometry x="262" width="509" height="67" as="geometry">
            <mxRectangle width="509" height="67" as="alternateBounds" />
          </mxGeometry>
        </mxCell>
        <mxCell id="im5-o7usMu12Ao5SWC0J-153" value="" style="shape=tableRow;horizontal=0;startSize=0;swimlaneHead=0;swimlaneBody=0;strokeColor=inherit;top=0;left=0;bottom=0;right=0;collapsible=0;dropTarget=0;fillColor=none;points=[[0,0.5],[1,0.5]];portConstraint=eastwest;" vertex="1" parent="im5-o7usMu12Ao5SWC0J-146">
          <mxGeometry y="132" width="771" height="65" as="geometry" />
        </mxCell>
        <mxCell id="im5-o7usMu12Ao5SWC0J-154" value="&lt;b&gt;Actores&lt;/b&gt;" style="shape=partialRectangle;html=1;whiteSpace=wrap;connectable=0;strokeColor=inherit;overflow=hidden;fillColor=none;top=0;left=0;bottom=0;right=0;pointerEvents=1;" vertex="1" parent="im5-o7usMu12Ao5SWC0J-153">
          <mxGeometry width="262" height="65" as="geometry">
            <mxRectangle width="262" height="65" as="alternateBounds" />
          </mxGeometry>
        </mxCell>
        <mxCell id="im5-o7usMu12Ao5SWC0J-155" value="Administrativo" style="shape=partialRectangle;html=1;whiteSpace=wrap;connectable=0;strokeColor=inherit;overflow=hidden;fillColor=none;top=0;left=0;bottom=0;right=0;pointerEvents=1;align=left;" vertex="1" parent="im5-o7usMu12Ao5SWC0J-153">
          <mxGeometry x="262" width="509" height="65" as="geometry">
            <mxRectangle width="509" height="65" as="alternateBounds" />
          </mxGeometry>
        </mxCell>
        <mxCell id="im5-o7usMu12Ao5SWC0J-156" value="" style="shape=tableRow;horizontal=0;startSize=0;swimlaneHead=0;swimlaneBody=0;strokeColor=inherit;top=0;left=0;bottom=0;right=0;collapsible=0;dropTarget=0;fillColor=none;points=[[0,0.5],[1,0.5]];portConstraint=eastwest;" vertex="1" parent="im5-o7usMu12Ao5SWC0J-146">
          <mxGeometry y="197" width="771" height="67" as="geometry" />
        </mxCell>
        <mxCell id="im5-o7usMu12Ao5SWC0J-157" value="&lt;b&gt;Precondiciones&lt;/b&gt;" style="shape=partialRectangle;html=1;whiteSpace=wrap;connectable=0;strokeColor=inherit;overflow=hidden;fillColor=none;top=0;left=0;bottom=0;right=0;pointerEvents=1;" vertex="1" parent="im5-o7usMu12Ao5SWC0J-156">
          <mxGeometry width="262" height="67" as="geometry">
            <mxRectangle width="262" height="67" as="alternateBounds" />
          </mxGeometry>
        </mxCell>
        <mxCell id="im5-o7usMu12Ao5SWC0J-158" value="-" style="shape=partialRectangle;html=1;whiteSpace=wrap;connectable=0;strokeColor=inherit;overflow=hidden;fillColor=none;top=0;left=0;bottom=0;right=0;pointerEvents=1;align=left;" vertex="1" parent="im5-o7usMu12Ao5SWC0J-156">
          <mxGeometry x="262" width="509" height="67" as="geometry">
            <mxRectangle width="509" height="67" as="alternateBounds" />
          </mxGeometry>
        </mxCell>
        <mxCell id="im5-o7usMu12Ao5SWC0J-159" value="" style="shape=tableRow;horizontal=0;startSize=0;swimlaneHead=0;swimlaneBody=0;strokeColor=inherit;top=0;left=0;bottom=0;right=0;collapsible=0;dropTarget=0;fillColor=none;points=[[0,0.5],[1,0.5]];portConstraint=eastwest;" vertex="1" parent="im5-o7usMu12Ao5SWC0J-146">
          <mxGeometry y="264" width="771" height="40" as="geometry" />
        </mxCell>
        <mxCell id="im5-o7usMu12Ao5SWC0J-160" value="" style="shape=partialRectangle;html=1;whiteSpace=wrap;connectable=0;strokeColor=inherit;overflow=hidden;fillColor=none;top=0;left=0;bottom=0;right=0;pointerEvents=1;" vertex="1" parent="im5-o7usMu12Ao5SWC0J-159">
          <mxGeometry width="262" height="40" as="geometry">
            <mxRectangle width="262" height="40" as="alternateBounds" />
          </mxGeometry>
        </mxCell>
        <mxCell id="im5-o7usMu12Ao5SWC0J-161" value="" style="shape=partialRectangle;html=1;whiteSpace=wrap;connectable=0;strokeColor=inherit;overflow=hidden;fillColor=none;top=0;left=0;bottom=0;right=0;pointerEvents=1;" vertex="1" parent="im5-o7usMu12Ao5SWC0J-159">
          <mxGeometry x="262" width="509" height="40" as="geometry">
            <mxRectangle width="509" height="40" as="alternateBounds" />
          </mxGeometry>
        </mxCell>
        <mxCell id="im5-o7usMu12Ao5SWC0J-162" value="" style="endArrow=none;html=1;rounded=0;exitX=0.704;exitY=0.998;exitDx=0;exitDy=0;exitPerimeter=0;entryX=0.686;entryY=0.05;entryDx=0;entryDy=0;entryPerimeter=0;" edge="1" parent="im5-o7usMu12Ao5SWC0J-146" target="im5-o7usMu12Ao5SWC0J-159">
          <mxGeometry width="50" height="50" relative="1" as="geometry">
            <mxPoint x="529.2539999999999" y="438.00199999999995" as="sourcePoint" />
            <mxPoint x="520.0019999999997" y="306.27" as="targetPoint" />
          </mxGeometry>
        </mxCell>
        <mxCell id="im5-o7usMu12Ao5SWC0J-163" value="" style="shape=tableRow;horizontal=0;startSize=0;swimlaneHead=0;swimlaneBody=0;strokeColor=inherit;top=0;left=0;bottom=0;right=0;collapsible=0;dropTarget=0;fillColor=none;points=[[0,0.5],[1,0.5]];portConstraint=eastwest;" vertex="1" parent="im5-o7usMu12Ao5SWC0J-146">
          <mxGeometry y="304" width="771" height="134" as="geometry" />
        </mxCell>
        <mxCell id="im5-o7usMu12Ao5SWC0J-164" value="&lt;b&gt;Curso normal&lt;/b&gt;" style="shape=partialRectangle;html=1;whiteSpace=wrap;connectable=0;strokeColor=inherit;overflow=hidden;fillColor=none;top=0;left=0;bottom=0;right=0;pointerEvents=1;" vertex="1" parent="im5-o7usMu12Ao5SWC0J-163">
          <mxGeometry width="262" height="134" as="geometry">
            <mxRectangle width="262" height="134" as="alternateBounds" />
          </mxGeometry>
        </mxCell>
        <mxCell id="im5-o7usMu12Ao5SWC0J-165" value="&lt;table&gt;&lt;tbody&gt;&lt;tr&gt;&lt;td&gt;&lt;br&gt;&lt;/td&gt;&lt;td&gt;&lt;br&gt;&lt;/td&gt;&lt;/tr&gt;&lt;/tbody&gt;&lt;/table&gt;" style="shape=partialRectangle;html=1;whiteSpace=wrap;connectable=0;strokeColor=inherit;overflow=hidden;fillColor=none;top=0;left=0;bottom=0;right=0;pointerEvents=1;" vertex="1" parent="im5-o7usMu12Ao5SWC0J-163">
          <mxGeometry x="262" width="509" height="134" as="geometry">
            <mxRectangle width="509" height="134" as="alternateBounds" />
          </mxGeometry>
        </mxCell>
        <mxCell id="im5-o7usMu12Ao5SWC0J-166" value="" style="shape=tableRow;horizontal=0;startSize=0;swimlaneHead=0;swimlaneBody=0;strokeColor=inherit;top=0;left=0;bottom=0;right=0;collapsible=0;dropTarget=0;fillColor=none;points=[[0,0.5],[1,0.5]];portConstraint=eastwest;" vertex="1" parent="im5-o7usMu12Ao5SWC0J-146">
          <mxGeometry y="438" width="771" height="67" as="geometry" />
        </mxCell>
        <mxCell id="im5-o7usMu12Ao5SWC0J-167" value="&lt;b&gt;Curso alterno&lt;/b&gt;" style="shape=partialRectangle;html=1;whiteSpace=wrap;connectable=0;strokeColor=inherit;overflow=hidden;fillColor=none;top=0;left=0;bottom=0;right=0;pointerEvents=1;" vertex="1" parent="im5-o7usMu12Ao5SWC0J-166">
          <mxGeometry width="262" height="67" as="geometry">
            <mxRectangle width="262" height="67" as="alternateBounds" />
          </mxGeometry>
        </mxCell>
        <mxCell id="im5-o7usMu12Ao5SWC0J-168" value="&lt;b&gt;Paso 3: &lt;/b&gt;El nombre de la carrera ya existe. Se informa el error. Se vuele al paso 2&lt;b&gt;&amp;nbsp;&lt;/b&gt;&lt;div&gt;&lt;b&gt;Paso 4:&amp;nbsp;&lt;/b&gt;&lt;span style=&quot;background-color: transparent; color: light-dark(rgb(0, 0, 0), rgb(255, 255, 255));&quot;&gt;los años sobre pasa los 5 años. Se informa el error. Se vuele al paso 2&lt;/span&gt;&lt;b style=&quot;background-color: transparent; color: light-dark(rgb(0, 0, 0), rgb(255, 255, 255));&quot;&gt;&amp;nbsp;&lt;/b&gt;&lt;/div&gt;" style="shape=partialRectangle;html=1;whiteSpace=wrap;connectable=0;strokeColor=inherit;overflow=hidden;fillColor=none;top=0;left=0;bottom=0;right=0;pointerEvents=1;" vertex="1" parent="im5-o7usMu12Ao5SWC0J-166">
          <mxGeometry x="262" width="509" height="67" as="geometry">
            <mxRectangle width="509" height="67" as="alternateBounds" />
          </mxGeometry>
        </mxCell>
        <mxCell id="im5-o7usMu12Ao5SWC0J-169" value="" style="shape=tableRow;horizontal=0;startSize=0;swimlaneHead=0;swimlaneBody=0;strokeColor=inherit;top=0;left=0;bottom=0;right=0;collapsible=0;dropTarget=0;fillColor=none;points=[[0,0.5],[1,0.5]];portConstraint=eastwest;" vertex="1" parent="im5-o7usMu12Ao5SWC0J-146">
          <mxGeometry y="505" width="771" height="65" as="geometry" />
        </mxCell>
        <mxCell id="im5-o7usMu12Ao5SWC0J-170" value="&lt;b&gt;Postcondicion&lt;/b&gt;" style="shape=partialRectangle;html=1;whiteSpace=wrap;connectable=0;strokeColor=inherit;overflow=hidden;fillColor=none;top=0;left=0;bottom=0;right=0;pointerEvents=1;" vertex="1" parent="im5-o7usMu12Ao5SWC0J-169">
          <mxGeometry width="262" height="65" as="geometry">
            <mxRectangle width="262" height="65" as="alternateBounds" />
          </mxGeometry>
        </mxCell>
        <mxCell id="im5-o7usMu12Ao5SWC0J-171" value="La carrera fue cargada y se habilitaron las inscripciones para ella." style="shape=partialRectangle;html=1;whiteSpace=wrap;connectable=0;strokeColor=inherit;overflow=hidden;fillColor=none;top=0;left=0;bottom=0;right=0;pointerEvents=1;align=left;" vertex="1" parent="im5-o7usMu12Ao5SWC0J-169">
          <mxGeometry x="262" width="509" height="65" as="geometry">
            <mxRectangle width="509" height="65" as="alternateBounds" />
          </mxGeometry>
        </mxCell>
        <mxCell id="im5-o7usMu12Ao5SWC0J-172" value="&lt;b&gt;Acciones del actor&lt;/b&gt;" style="text;html=1;align=center;verticalAlign=middle;whiteSpace=wrap;rounded=0;movable=1;resizable=1;rotatable=1;deletable=1;editable=1;locked=0;connectable=1;" vertex="1" parent="1">
          <mxGeometry x="1300" y="1170" width="180" height="30" as="geometry" />
        </mxCell>
        <mxCell id="im5-o7usMu12Ao5SWC0J-173" value="&lt;b&gt;Acciones del sistema&lt;/b&gt;" style="text;html=1;align=center;verticalAlign=middle;whiteSpace=wrap;rounded=0;movable=1;resizable=1;rotatable=1;deletable=1;editable=1;locked=0;connectable=1;" vertex="1" parent="1">
          <mxGeometry x="1570" y="1170" width="160" height="30" as="geometry" />
        </mxCell>
        <mxCell id="im5-o7usMu12Ao5SWC0J-174" value="&lt;b&gt;Paso 1&lt;/b&gt;: El usuario administrativo presiona &quot;cargar carrera&quot;&lt;div&gt;&lt;b&gt;Paso 3: &lt;/b&gt;el usuario administrativo carga los datos solicitados&lt;/div&gt;" style="text;html=1;align=center;verticalAlign=middle;whiteSpace=wrap;rounded=0;" vertex="1" parent="1">
          <mxGeometry x="1270" y="1210" width="240" height="120" as="geometry" />
        </mxCell>
        <mxCell id="im5-o7usMu12Ao5SWC0J-176" value="" style="shape=table;startSize=0;container=1;collapsible=0;childLayout=tableLayout;" vertex="1" parent="1">
          <mxGeometry x="170" y="1510" width="771" height="675" as="geometry" />
        </mxCell>
        <mxCell id="im5-o7usMu12Ao5SWC0J-177" value="" style="shape=tableRow;horizontal=0;startSize=0;swimlaneHead=0;swimlaneBody=0;strokeColor=inherit;top=0;left=0;bottom=0;right=0;collapsible=0;dropTarget=0;fillColor=none;points=[[0,0.5],[1,0.5]];portConstraint=eastwest;" vertex="1" parent="im5-o7usMu12Ao5SWC0J-176">
          <mxGeometry width="771" height="65" as="geometry" />
        </mxCell>
        <mxCell id="im5-o7usMu12Ao5SWC0J-178" value="&lt;b&gt;Nombre del caso de uso&lt;/b&gt;" style="shape=partialRectangle;html=1;whiteSpace=wrap;connectable=0;strokeColor=inherit;overflow=hidden;fillColor=none;top=0;left=0;bottom=0;right=0;pointerEvents=1;" vertex="1" parent="im5-o7usMu12Ao5SWC0J-177">
          <mxGeometry width="262" height="65" as="geometry">
            <mxRectangle width="262" height="65" as="alternateBounds" />
          </mxGeometry>
        </mxCell>
        <mxCell id="im5-o7usMu12Ao5SWC0J-179" value="&amp;nbsp;Pagar con tarjeta" style="shape=partialRectangle;html=1;whiteSpace=wrap;connectable=0;strokeColor=inherit;overflow=hidden;fillColor=none;top=0;left=0;bottom=0;right=0;pointerEvents=1;align=left;" vertex="1" parent="im5-o7usMu12Ao5SWC0J-177">
          <mxGeometry x="262" width="509" height="65" as="geometry">
            <mxRectangle width="509" height="65" as="alternateBounds" />
          </mxGeometry>
        </mxCell>
        <mxCell id="im5-o7usMu12Ao5SWC0J-180" value="" style="shape=tableRow;horizontal=0;startSize=0;swimlaneHead=0;swimlaneBody=0;strokeColor=inherit;top=0;left=0;bottom=0;right=0;collapsible=0;dropTarget=0;fillColor=none;points=[[0,0.5],[1,0.5]];portConstraint=eastwest;" vertex="1" parent="im5-o7usMu12Ao5SWC0J-176">
          <mxGeometry y="65" width="771" height="67" as="geometry" />
        </mxCell>
        <mxCell id="im5-o7usMu12Ao5SWC0J-181" value="&lt;b&gt;Descripcion&lt;/b&gt;" style="shape=partialRectangle;html=1;whiteSpace=wrap;connectable=0;strokeColor=inherit;overflow=hidden;fillColor=none;top=0;left=0;bottom=0;right=0;pointerEvents=1;" vertex="1" parent="im5-o7usMu12Ao5SWC0J-180">
          <mxGeometry width="262" height="67" as="geometry">
            <mxRectangle width="262" height="67" as="alternateBounds" />
          </mxGeometry>
        </mxCell>
        <mxCell id="im5-o7usMu12Ao5SWC0J-182" value="Este caso de uso describe el proceso de cobro de la inscripción a una carrera seleccionada por un alumno previamente registrado" style="shape=partialRectangle;html=1;whiteSpace=wrap;connectable=0;strokeColor=inherit;overflow=hidden;fillColor=none;top=0;left=0;bottom=0;right=0;pointerEvents=1;align=left;" vertex="1" parent="im5-o7usMu12Ao5SWC0J-180">
          <mxGeometry x="262" width="509" height="67" as="geometry">
            <mxRectangle width="509" height="67" as="alternateBounds" />
          </mxGeometry>
        </mxCell>
        <mxCell id="im5-o7usMu12Ao5SWC0J-183" value="" style="shape=tableRow;horizontal=0;startSize=0;swimlaneHead=0;swimlaneBody=0;strokeColor=inherit;top=0;left=0;bottom=0;right=0;collapsible=0;dropTarget=0;fillColor=none;points=[[0,0.5],[1,0.5]];portConstraint=eastwest;" vertex="1" parent="im5-o7usMu12Ao5SWC0J-176">
          <mxGeometry y="132" width="771" height="65" as="geometry" />
        </mxCell>
        <mxCell id="im5-o7usMu12Ao5SWC0J-184" value="&lt;b&gt;Actores&lt;/b&gt;" style="shape=partialRectangle;html=1;whiteSpace=wrap;connectable=0;strokeColor=inherit;overflow=hidden;fillColor=none;top=0;left=0;bottom=0;right=0;pointerEvents=1;" vertex="1" parent="im5-o7usMu12Ao5SWC0J-183">
          <mxGeometry width="262" height="65" as="geometry">
            <mxRectangle width="262" height="65" as="alternateBounds" />
          </mxGeometry>
        </mxCell>
        <mxCell id="im5-o7usMu12Ao5SWC0J-185" value="&amp;nbsp;Servidor externo,Almno registrado" style="shape=partialRectangle;html=1;whiteSpace=wrap;connectable=0;strokeColor=inherit;overflow=hidden;fillColor=none;top=0;left=0;bottom=0;right=0;pointerEvents=1;align=left;" vertex="1" parent="im5-o7usMu12Ao5SWC0J-183">
          <mxGeometry x="262" width="509" height="65" as="geometry">
            <mxRectangle width="509" height="65" as="alternateBounds" />
          </mxGeometry>
        </mxCell>
        <mxCell id="im5-o7usMu12Ao5SWC0J-186" value="" style="shape=tableRow;horizontal=0;startSize=0;swimlaneHead=0;swimlaneBody=0;strokeColor=inherit;top=0;left=0;bottom=0;right=0;collapsible=0;dropTarget=0;fillColor=none;points=[[0,0.5],[1,0.5]];portConstraint=eastwest;" vertex="1" parent="im5-o7usMu12Ao5SWC0J-176">
          <mxGeometry y="197" width="771" height="67" as="geometry" />
        </mxCell>
        <mxCell id="im5-o7usMu12Ao5SWC0J-187" value="&lt;b&gt;Precondiciones&lt;/b&gt;" style="shape=partialRectangle;html=1;whiteSpace=wrap;connectable=0;strokeColor=inherit;overflow=hidden;fillColor=none;top=0;left=0;bottom=0;right=0;pointerEvents=1;" vertex="1" parent="im5-o7usMu12Ao5SWC0J-186">
          <mxGeometry width="262" height="67" as="geometry">
            <mxRectangle width="262" height="67" as="alternateBounds" />
          </mxGeometry>
        </mxCell>
        <mxCell id="im5-o7usMu12Ao5SWC0J-188" value="&amp;nbsp;Se debe haber ejecutado el caso de uso &quot;Inscribirse&quot;" style="shape=partialRectangle;html=1;whiteSpace=wrap;connectable=0;strokeColor=inherit;overflow=hidden;fillColor=none;top=0;left=0;bottom=0;right=0;pointerEvents=1;align=left;" vertex="1" parent="im5-o7usMu12Ao5SWC0J-186">
          <mxGeometry x="262" width="509" height="67" as="geometry">
            <mxRectangle width="509" height="67" as="alternateBounds" />
          </mxGeometry>
        </mxCell>
        <mxCell id="im5-o7usMu12Ao5SWC0J-189" value="" style="shape=tableRow;horizontal=0;startSize=0;swimlaneHead=0;swimlaneBody=0;strokeColor=inherit;top=0;left=0;bottom=0;right=0;collapsible=0;dropTarget=0;fillColor=none;points=[[0,0.5],[1,0.5]];portConstraint=eastwest;" vertex="1" parent="im5-o7usMu12Ao5SWC0J-176">
          <mxGeometry y="264" width="771" height="40" as="geometry" />
        </mxCell>
        <mxCell id="im5-o7usMu12Ao5SWC0J-190" value="" style="shape=partialRectangle;html=1;whiteSpace=wrap;connectable=0;strokeColor=inherit;overflow=hidden;fillColor=none;top=0;left=0;bottom=0;right=0;pointerEvents=1;" vertex="1" parent="im5-o7usMu12Ao5SWC0J-189">
          <mxGeometry width="262" height="40" as="geometry">
            <mxRectangle width="262" height="40" as="alternateBounds" />
          </mxGeometry>
        </mxCell>
        <mxCell id="im5-o7usMu12Ao5SWC0J-191" value="" style="shape=partialRectangle;html=1;whiteSpace=wrap;connectable=0;strokeColor=inherit;overflow=hidden;fillColor=none;top=0;left=0;bottom=0;right=0;pointerEvents=1;" vertex="1" parent="im5-o7usMu12Ao5SWC0J-189">
          <mxGeometry x="262" width="509" height="40" as="geometry">
            <mxRectangle width="509" height="40" as="alternateBounds" />
          </mxGeometry>
        </mxCell>
        <mxCell id="im5-o7usMu12Ao5SWC0J-192" value="" style="endArrow=none;html=1;rounded=0;exitX=0.685;exitY=0.994;exitDx=0;exitDy=0;exitPerimeter=0;entryX=0.686;entryY=0.05;entryDx=0;entryDy=0;entryPerimeter=0;" edge="1" parent="im5-o7usMu12Ao5SWC0J-176" target="im5-o7usMu12Ao5SWC0J-189" source="im5-o7usMu12Ao5SWC0J-193">
          <mxGeometry width="50" height="50" relative="1" as="geometry">
            <mxPoint x="529.2539999999999" y="438.00199999999995" as="sourcePoint" />
            <mxPoint x="520.0019999999997" y="306.27" as="targetPoint" />
          </mxGeometry>
        </mxCell>
        <mxCell id="im5-o7usMu12Ao5SWC0J-193" value="" style="shape=tableRow;horizontal=0;startSize=0;swimlaneHead=0;swimlaneBody=0;strokeColor=inherit;top=0;left=0;bottom=0;right=0;collapsible=0;dropTarget=0;fillColor=none;points=[[0,0.5],[1,0.5]];portConstraint=eastwest;" vertex="1" parent="im5-o7usMu12Ao5SWC0J-176">
          <mxGeometry y="304" width="771" height="176" as="geometry" />
        </mxCell>
        <mxCell id="im5-o7usMu12Ao5SWC0J-194" value="&lt;b&gt;Curso normal&lt;/b&gt;" style="shape=partialRectangle;html=1;whiteSpace=wrap;connectable=0;strokeColor=inherit;overflow=hidden;fillColor=none;top=0;left=0;bottom=0;right=0;pointerEvents=1;" vertex="1" parent="im5-o7usMu12Ao5SWC0J-193">
          <mxGeometry width="262" height="176" as="geometry">
            <mxRectangle width="262" height="176" as="alternateBounds" />
          </mxGeometry>
        </mxCell>
        <mxCell id="im5-o7usMu12Ao5SWC0J-195" value="&lt;table&gt;&lt;tbody&gt;&lt;tr&gt;&lt;td&gt;&lt;br&gt;&lt;/td&gt;&lt;td&gt;&lt;br&gt;&lt;/td&gt;&lt;/tr&gt;&lt;/tbody&gt;&lt;/table&gt;" style="shape=partialRectangle;html=1;whiteSpace=wrap;connectable=0;strokeColor=inherit;overflow=hidden;fillColor=none;top=0;left=0;bottom=0;right=0;pointerEvents=1;" vertex="1" parent="im5-o7usMu12Ao5SWC0J-193">
          <mxGeometry x="262" width="509" height="176" as="geometry">
            <mxRectangle width="509" height="176" as="alternateBounds" />
          </mxGeometry>
        </mxCell>
        <mxCell id="im5-o7usMu12Ao5SWC0J-196" value="" style="shape=tableRow;horizontal=0;startSize=0;swimlaneHead=0;swimlaneBody=0;strokeColor=inherit;top=0;left=0;bottom=0;right=0;collapsible=0;dropTarget=0;fillColor=none;points=[[0,0.5],[1,0.5]];portConstraint=eastwest;" vertex="1" parent="im5-o7usMu12Ao5SWC0J-176">
          <mxGeometry y="480" width="771" height="130" as="geometry" />
        </mxCell>
        <mxCell id="im5-o7usMu12Ao5SWC0J-197" value="&lt;b&gt;Curso alterno&lt;/b&gt;" style="shape=partialRectangle;html=1;whiteSpace=wrap;connectable=0;strokeColor=inherit;overflow=hidden;fillColor=none;top=0;left=0;bottom=0;right=0;pointerEvents=1;" vertex="1" parent="im5-o7usMu12Ao5SWC0J-196">
          <mxGeometry width="262" height="130" as="geometry">
            <mxRectangle width="262" height="130" as="alternateBounds" />
          </mxGeometry>
        </mxCell>
        <mxCell id="im5-o7usMu12Ao5SWC0J-198" value="" style="shape=partialRectangle;html=1;whiteSpace=wrap;connectable=0;strokeColor=inherit;overflow=hidden;fillColor=none;top=0;left=0;bottom=0;right=0;pointerEvents=1;" vertex="1" parent="im5-o7usMu12Ao5SWC0J-196">
          <mxGeometry x="262" width="509" height="130" as="geometry">
            <mxRectangle width="509" height="130" as="alternateBounds" />
          </mxGeometry>
        </mxCell>
        <mxCell id="im5-o7usMu12Ao5SWC0J-199" value="" style="shape=tableRow;horizontal=0;startSize=0;swimlaneHead=0;swimlaneBody=0;strokeColor=inherit;top=0;left=0;bottom=0;right=0;collapsible=0;dropTarget=0;fillColor=none;points=[[0,0.5],[1,0.5]];portConstraint=eastwest;" vertex="1" parent="im5-o7usMu12Ao5SWC0J-176">
          <mxGeometry y="610" width="771" height="65" as="geometry" />
        </mxCell>
        <mxCell id="im5-o7usMu12Ao5SWC0J-200" value="&lt;b&gt;Postcondicion&lt;/b&gt;" style="shape=partialRectangle;html=1;whiteSpace=wrap;connectable=0;strokeColor=inherit;overflow=hidden;fillColor=none;top=0;left=0;bottom=0;right=0;pointerEvents=1;" vertex="1" parent="im5-o7usMu12Ao5SWC0J-199">
          <mxGeometry width="262" height="65" as="geometry">
            <mxRectangle width="262" height="65" as="alternateBounds" />
          </mxGeometry>
        </mxCell>
        <mxCell id="im5-o7usMu12Ao5SWC0J-201" value="" style="shape=partialRectangle;html=1;whiteSpace=wrap;connectable=0;strokeColor=inherit;overflow=hidden;fillColor=none;top=0;left=0;bottom=0;right=0;pointerEvents=1;align=left;" vertex="1" parent="im5-o7usMu12Ao5SWC0J-199">
          <mxGeometry x="262" width="509" height="65" as="geometry">
            <mxRectangle width="509" height="65" as="alternateBounds" />
          </mxGeometry>
        </mxCell>
        <mxCell id="im5-o7usMu12Ao5SWC0J-202" value="&lt;b&gt;Acciones del actor&lt;/b&gt;" style="text;html=1;align=center;verticalAlign=middle;whiteSpace=wrap;rounded=0;movable=1;resizable=1;rotatable=1;deletable=1;editable=1;locked=0;connectable=1;" vertex="1" parent="1">
          <mxGeometry x="480" y="1780" width="180" height="30" as="geometry" />
        </mxCell>
        <mxCell id="im5-o7usMu12Ao5SWC0J-203" value="&lt;b&gt;Acciones del sistema&lt;/b&gt;" style="text;html=1;align=center;verticalAlign=middle;whiteSpace=wrap;rounded=0;movable=1;resizable=1;rotatable=1;deletable=1;editable=1;locked=0;connectable=1;" vertex="1" parent="1">
          <mxGeometry x="750" y="1780" width="160" height="30" as="geometry" />
        </mxCell>
        <mxCell id="im5-o7usMu12Ao5SWC0J-204" value="&lt;div&gt;&lt;div&gt;&lt;br&gt;&lt;/div&gt;&lt;/div&gt;" style="text;html=1;align=center;verticalAlign=middle;whiteSpace=wrap;rounded=0;" vertex="1" parent="1">
          <mxGeometry x="450" y="1820" width="240" height="120" as="geometry" />
        </mxCell>
        <mxCell id="im5-o7usMu12Ao5SWC0J-205" value="" style="shape=table;startSize=0;container=1;collapsible=0;childLayout=tableLayout;" vertex="1" parent="1">
          <mxGeometry x="990" y="1520" width="771" height="582" as="geometry" />
        </mxCell>
        <mxCell id="im5-o7usMu12Ao5SWC0J-206" value="" style="shape=tableRow;horizontal=0;startSize=0;swimlaneHead=0;swimlaneBody=0;strokeColor=inherit;top=0;left=0;bottom=0;right=0;collapsible=0;dropTarget=0;fillColor=none;points=[[0,0.5],[1,0.5]];portConstraint=eastwest;" vertex="1" parent="im5-o7usMu12Ao5SWC0J-205">
          <mxGeometry width="771" height="65" as="geometry" />
        </mxCell>
        <mxCell id="im5-o7usMu12Ao5SWC0J-207" value="&lt;b&gt;Nombre del caso de uso&lt;/b&gt;" style="shape=partialRectangle;html=1;whiteSpace=wrap;connectable=0;strokeColor=inherit;overflow=hidden;fillColor=none;top=0;left=0;bottom=0;right=0;pointerEvents=1;" vertex="1" parent="im5-o7usMu12Ao5SWC0J-206">
          <mxGeometry width="262" height="65" as="geometry">
            <mxRectangle width="262" height="65" as="alternateBounds" />
          </mxGeometry>
        </mxCell>
        <mxCell id="im5-o7usMu12Ao5SWC0J-208" value="&amp;nbsp;Inscribirse" style="shape=partialRectangle;html=1;whiteSpace=wrap;connectable=0;strokeColor=inherit;overflow=hidden;fillColor=none;top=0;left=0;bottom=0;right=0;pointerEvents=1;align=left;" vertex="1" parent="im5-o7usMu12Ao5SWC0J-206">
          <mxGeometry x="262" width="509" height="65" as="geometry">
            <mxRectangle width="509" height="65" as="alternateBounds" />
          </mxGeometry>
        </mxCell>
        <mxCell id="im5-o7usMu12Ao5SWC0J-209" value="" style="shape=tableRow;horizontal=0;startSize=0;swimlaneHead=0;swimlaneBody=0;strokeColor=inherit;top=0;left=0;bottom=0;right=0;collapsible=0;dropTarget=0;fillColor=none;points=[[0,0.5],[1,0.5]];portConstraint=eastwest;" vertex="1" parent="im5-o7usMu12Ao5SWC0J-205">
          <mxGeometry y="65" width="771" height="67" as="geometry" />
        </mxCell>
        <mxCell id="im5-o7usMu12Ao5SWC0J-210" value="&lt;b&gt;Descripcion&lt;/b&gt;" style="shape=partialRectangle;html=1;whiteSpace=wrap;connectable=0;strokeColor=inherit;overflow=hidden;fillColor=none;top=0;left=0;bottom=0;right=0;pointerEvents=1;" vertex="1" parent="im5-o7usMu12Ao5SWC0J-209">
          <mxGeometry width="262" height="67" as="geometry">
            <mxRectangle width="262" height="67" as="alternateBounds" />
          </mxGeometry>
        </mxCell>
        <mxCell id="im5-o7usMu12Ao5SWC0J-211" value="&amp;nbsp;En este caso de uso se describe el evento que un alumno registrado se inscriba a una materia previamente cargada y habilitada." style="shape=partialRectangle;html=1;whiteSpace=wrap;connectable=0;strokeColor=inherit;overflow=hidden;fillColor=none;top=0;left=0;bottom=0;right=0;pointerEvents=1;align=left;" vertex="1" parent="im5-o7usMu12Ao5SWC0J-209">
          <mxGeometry x="262" width="509" height="67" as="geometry">
            <mxRectangle width="509" height="67" as="alternateBounds" />
          </mxGeometry>
        </mxCell>
        <mxCell id="im5-o7usMu12Ao5SWC0J-212" value="" style="shape=tableRow;horizontal=0;startSize=0;swimlaneHead=0;swimlaneBody=0;strokeColor=inherit;top=0;left=0;bottom=0;right=0;collapsible=0;dropTarget=0;fillColor=none;points=[[0,0.5],[1,0.5]];portConstraint=eastwest;" vertex="1" parent="im5-o7usMu12Ao5SWC0J-205">
          <mxGeometry y="132" width="771" height="65" as="geometry" />
        </mxCell>
        <mxCell id="im5-o7usMu12Ao5SWC0J-213" value="&lt;b&gt;Actores&lt;/b&gt;" style="shape=partialRectangle;html=1;whiteSpace=wrap;connectable=0;strokeColor=inherit;overflow=hidden;fillColor=none;top=0;left=0;bottom=0;right=0;pointerEvents=1;" vertex="1" parent="im5-o7usMu12Ao5SWC0J-212">
          <mxGeometry width="262" height="65" as="geometry">
            <mxRectangle width="262" height="65" as="alternateBounds" />
          </mxGeometry>
        </mxCell>
        <mxCell id="im5-o7usMu12Ao5SWC0J-214" value="Alumno registrado" style="shape=partialRectangle;html=1;whiteSpace=wrap;connectable=0;strokeColor=inherit;overflow=hidden;fillColor=none;top=0;left=0;bottom=0;right=0;pointerEvents=1;align=left;" vertex="1" parent="im5-o7usMu12Ao5SWC0J-212">
          <mxGeometry x="262" width="509" height="65" as="geometry">
            <mxRectangle width="509" height="65" as="alternateBounds" />
          </mxGeometry>
        </mxCell>
        <mxCell id="im5-o7usMu12Ao5SWC0J-215" value="" style="shape=tableRow;horizontal=0;startSize=0;swimlaneHead=0;swimlaneBody=0;strokeColor=inherit;top=0;left=0;bottom=0;right=0;collapsible=0;dropTarget=0;fillColor=none;points=[[0,0.5],[1,0.5]];portConstraint=eastwest;" vertex="1" parent="im5-o7usMu12Ao5SWC0J-205">
          <mxGeometry y="197" width="771" height="67" as="geometry" />
        </mxCell>
        <mxCell id="im5-o7usMu12Ao5SWC0J-216" value="&lt;b&gt;Precondiciones&lt;/b&gt;" style="shape=partialRectangle;html=1;whiteSpace=wrap;connectable=0;strokeColor=inherit;overflow=hidden;fillColor=none;top=0;left=0;bottom=0;right=0;pointerEvents=1;" vertex="1" parent="im5-o7usMu12Ao5SWC0J-215">
          <mxGeometry width="262" height="67" as="geometry">
            <mxRectangle width="262" height="67" as="alternateBounds" />
          </mxGeometry>
        </mxCell>
        <mxCell id="im5-o7usMu12Ao5SWC0J-217" value="&amp;nbsp;El alumno tiene que tener una sesion activa y tienen que existir carreras&amp;nbsp;" style="shape=partialRectangle;html=1;whiteSpace=wrap;connectable=0;strokeColor=inherit;overflow=hidden;fillColor=none;top=0;left=0;bottom=0;right=0;pointerEvents=1;align=left;" vertex="1" parent="im5-o7usMu12Ao5SWC0J-215">
          <mxGeometry x="262" width="509" height="67" as="geometry">
            <mxRectangle width="509" height="67" as="alternateBounds" />
          </mxGeometry>
        </mxCell>
        <mxCell id="im5-o7usMu12Ao5SWC0J-218" value="" style="shape=tableRow;horizontal=0;startSize=0;swimlaneHead=0;swimlaneBody=0;strokeColor=inherit;top=0;left=0;bottom=0;right=0;collapsible=0;dropTarget=0;fillColor=none;points=[[0,0.5],[1,0.5]];portConstraint=eastwest;" vertex="1" parent="im5-o7usMu12Ao5SWC0J-205">
          <mxGeometry y="264" width="771" height="40" as="geometry" />
        </mxCell>
        <mxCell id="im5-o7usMu12Ao5SWC0J-219" value="" style="shape=partialRectangle;html=1;whiteSpace=wrap;connectable=0;strokeColor=inherit;overflow=hidden;fillColor=none;top=0;left=0;bottom=0;right=0;pointerEvents=1;" vertex="1" parent="im5-o7usMu12Ao5SWC0J-218">
          <mxGeometry width="262" height="40" as="geometry">
            <mxRectangle width="262" height="40" as="alternateBounds" />
          </mxGeometry>
        </mxCell>
        <mxCell id="im5-o7usMu12Ao5SWC0J-220" value="" style="shape=partialRectangle;html=1;whiteSpace=wrap;connectable=0;strokeColor=inherit;overflow=hidden;fillColor=none;top=0;left=0;bottom=0;right=0;pointerEvents=1;" vertex="1" parent="im5-o7usMu12Ao5SWC0J-218">
          <mxGeometry x="262" width="509" height="40" as="geometry">
            <mxRectangle width="509" height="40" as="alternateBounds" />
          </mxGeometry>
        </mxCell>
        <mxCell id="im5-o7usMu12Ao5SWC0J-221" value="" style="endArrow=none;html=1;rounded=0;exitX=0.704;exitY=0.998;exitDx=0;exitDy=0;exitPerimeter=0;entryX=0.686;entryY=0.05;entryDx=0;entryDy=0;entryPerimeter=0;" edge="1" parent="im5-o7usMu12Ao5SWC0J-205" target="im5-o7usMu12Ao5SWC0J-218">
          <mxGeometry width="50" height="50" relative="1" as="geometry">
            <mxPoint x="529.2539999999999" y="438.00199999999995" as="sourcePoint" />
            <mxPoint x="520.0019999999997" y="306.27" as="targetPoint" />
          </mxGeometry>
        </mxCell>
        <mxCell id="im5-o7usMu12Ao5SWC0J-222" value="" style="shape=tableRow;horizontal=0;startSize=0;swimlaneHead=0;swimlaneBody=0;strokeColor=inherit;top=0;left=0;bottom=0;right=0;collapsible=0;dropTarget=0;fillColor=none;points=[[0,0.5],[1,0.5]];portConstraint=eastwest;" vertex="1" parent="im5-o7usMu12Ao5SWC0J-205">
          <mxGeometry y="304" width="771" height="146" as="geometry" />
        </mxCell>
        <mxCell id="im5-o7usMu12Ao5SWC0J-223" value="&lt;b&gt;Curso normal&lt;/b&gt;" style="shape=partialRectangle;html=1;whiteSpace=wrap;connectable=0;strokeColor=inherit;overflow=hidden;fillColor=none;top=0;left=0;bottom=0;right=0;pointerEvents=1;" vertex="1" parent="im5-o7usMu12Ao5SWC0J-222">
          <mxGeometry width="262" height="146" as="geometry">
            <mxRectangle width="262" height="146" as="alternateBounds" />
          </mxGeometry>
        </mxCell>
        <mxCell id="im5-o7usMu12Ao5SWC0J-224" value="&lt;table&gt;&lt;tbody&gt;&lt;tr&gt;&lt;td&gt;&lt;br&gt;&lt;/td&gt;&lt;td&gt;&lt;br&gt;&lt;/td&gt;&lt;/tr&gt;&lt;/tbody&gt;&lt;/table&gt;" style="shape=partialRectangle;html=1;whiteSpace=wrap;connectable=0;strokeColor=inherit;overflow=hidden;fillColor=none;top=0;left=0;bottom=0;right=0;pointerEvents=1;" vertex="1" parent="im5-o7usMu12Ao5SWC0J-222">
          <mxGeometry x="262" width="509" height="146" as="geometry">
            <mxRectangle width="509" height="146" as="alternateBounds" />
          </mxGeometry>
        </mxCell>
        <mxCell id="im5-o7usMu12Ao5SWC0J-225" value="" style="shape=tableRow;horizontal=0;startSize=0;swimlaneHead=0;swimlaneBody=0;strokeColor=inherit;top=0;left=0;bottom=0;right=0;collapsible=0;dropTarget=0;fillColor=none;points=[[0,0.5],[1,0.5]];portConstraint=eastwest;" vertex="1" parent="im5-o7usMu12Ao5SWC0J-205">
          <mxGeometry y="450" width="771" height="67" as="geometry" />
        </mxCell>
        <mxCell id="im5-o7usMu12Ao5SWC0J-226" value="&lt;b&gt;Curso alterno&lt;/b&gt;" style="shape=partialRectangle;html=1;whiteSpace=wrap;connectable=0;strokeColor=inherit;overflow=hidden;fillColor=none;top=0;left=0;bottom=0;right=0;pointerEvents=1;" vertex="1" parent="im5-o7usMu12Ao5SWC0J-225">
          <mxGeometry width="262" height="67" as="geometry">
            <mxRectangle width="262" height="67" as="alternateBounds" />
          </mxGeometry>
        </mxCell>
        <mxCell id="im5-o7usMu12Ao5SWC0J-227" value="&lt;b&gt;Paso 4:&lt;/b&gt; Las cuotas elegidas son superior a las cantidad de cuotas maximas. Se informa. Se vuelve al paso 2&lt;br&gt;&lt;b&gt;Paso 5: &lt;/b&gt;El pago no se realiza. Se informa al alumno registrado. Fin del caso de uso" style="shape=partialRectangle;html=1;whiteSpace=wrap;connectable=0;strokeColor=inherit;overflow=hidden;fillColor=none;top=0;left=0;bottom=0;right=0;pointerEvents=1;" vertex="1" parent="im5-o7usMu12Ao5SWC0J-225">
          <mxGeometry x="262" width="509" height="67" as="geometry">
            <mxRectangle width="509" height="67" as="alternateBounds" />
          </mxGeometry>
        </mxCell>
        <mxCell id="im5-o7usMu12Ao5SWC0J-228" value="" style="shape=tableRow;horizontal=0;startSize=0;swimlaneHead=0;swimlaneBody=0;strokeColor=inherit;top=0;left=0;bottom=0;right=0;collapsible=0;dropTarget=0;fillColor=none;points=[[0,0.5],[1,0.5]];portConstraint=eastwest;" vertex="1" parent="im5-o7usMu12Ao5SWC0J-205">
          <mxGeometry y="517" width="771" height="65" as="geometry" />
        </mxCell>
        <mxCell id="im5-o7usMu12Ao5SWC0J-229" value="&lt;b&gt;Postcondicion&lt;/b&gt;" style="shape=partialRectangle;html=1;whiteSpace=wrap;connectable=0;strokeColor=inherit;overflow=hidden;fillColor=none;top=0;left=0;bottom=0;right=0;pointerEvents=1;" vertex="1" parent="im5-o7usMu12Ao5SWC0J-228">
          <mxGeometry width="262" height="65" as="geometry">
            <mxRectangle width="262" height="65" as="alternateBounds" />
          </mxGeometry>
        </mxCell>
        <mxCell id="im5-o7usMu12Ao5SWC0J-230" value="&amp;nbsp;Se efectua la inscripcin del alumno a la carrera" style="shape=partialRectangle;html=1;whiteSpace=wrap;connectable=0;strokeColor=inherit;overflow=hidden;fillColor=none;top=0;left=0;bottom=0;right=0;pointerEvents=1;align=left;" vertex="1" parent="im5-o7usMu12Ao5SWC0J-228">
          <mxGeometry x="262" width="509" height="65" as="geometry">
            <mxRectangle width="509" height="65" as="alternateBounds" />
          </mxGeometry>
        </mxCell>
        <mxCell id="im5-o7usMu12Ao5SWC0J-231" value="&lt;b&gt;Acciones del actor&lt;/b&gt;" style="text;html=1;align=center;verticalAlign=middle;whiteSpace=wrap;rounded=0;movable=1;resizable=1;rotatable=1;deletable=1;editable=1;locked=0;connectable=1;" vertex="1" parent="1">
          <mxGeometry x="1300" y="1790" width="180" height="30" as="geometry" />
        </mxCell>
        <mxCell id="im5-o7usMu12Ao5SWC0J-232" value="&lt;b&gt;Acciones del sistema&lt;/b&gt;" style="text;html=1;align=center;verticalAlign=middle;whiteSpace=wrap;rounded=0;movable=1;resizable=1;rotatable=1;deletable=1;editable=1;locked=0;connectable=1;" vertex="1" parent="1">
          <mxGeometry x="1570" y="1790" width="160" height="30" as="geometry" />
        </mxCell>
        <mxCell id="im5-o7usMu12Ao5SWC0J-233" value="&lt;div&gt;&lt;div&gt;&lt;b&gt;Paso 1:&lt;/b&gt; El alumno registrado presiona &quot;Inscribirse&quot; en la carrera&amp;nbsp; que desea&lt;/div&gt;&lt;/div&gt;&lt;div&gt;&lt;b&gt;Paso 3:&lt;/b&gt; El alumno registrado ingresa los datos solicitados&lt;/div&gt;" style="text;html=1;align=left;verticalAlign=middle;whiteSpace=wrap;rounded=0;" vertex="1" parent="1">
          <mxGeometry x="1270" y="1830" width="240" height="120" as="geometry" />
        </mxCell>
        <mxCell id="im5-o7usMu12Ao5SWC0J-234" value="&lt;b&gt;Paso 2:&lt;/b&gt; El sistema solicita&amp;nbsp; nombre unico de la carrera, duracion en años, costo y cantidad maxima de cuotas.&lt;div&gt;&lt;b&gt;Paso 4:&lt;/b&gt; el sistema valida que el nombre de la carrera no existe.&lt;/div&gt;&lt;div&gt;&lt;b&gt;Paso 5:&lt;/b&gt;&amp;nbsp;la duracion de años no sobre pase los 5 años&lt;/div&gt;&lt;div&gt;&lt;b&gt;Paso 6:&lt;/b&gt; Se registra la carrera en el sistema y se informa &quot;se a cargado correctamente&quot;&lt;/div&gt;" style="text;html=1;align=center;verticalAlign=middle;whiteSpace=wrap;rounded=0;" vertex="1" parent="1">
          <mxGeometry x="1520" y="1210" width="240" height="120" as="geometry" />
        </mxCell>
        <mxCell id="im5-o7usMu12Ao5SWC0J-235" value="&lt;div&gt;&lt;div&gt;&lt;b&gt;Paso 2:&amp;nbsp;&lt;/b&gt; El sistema solicita, la cantiad de cuotas a pagar, numero de tarjeta.&lt;/div&gt;&lt;/div&gt;&lt;div&gt;&lt;b&gt;Paso 4:&lt;/b&gt;&amp;nbsp; El sistema valida que las cuotas no superen las cuotas de la carrera&lt;/div&gt;&lt;div&gt;&lt;b&gt;Paso 5:&lt;/b&gt; Se ejecuta el caso de uso pago con tarjeta&lt;/div&gt;&lt;div&gt;&lt;b&gt;Paso 6:&amp;nbsp;&lt;/b&gt;se registra la inscripcion, se imprime el comprobante de inscripcion y el de pago&amp;nbsp;&lt;/div&gt;" style="text;html=1;align=left;verticalAlign=middle;whiteSpace=wrap;rounded=0;" vertex="1" parent="1">
          <mxGeometry x="1521" y="1840" width="240" height="120" as="geometry" />
        </mxCell>
        <mxCell id="im5-o7usMu12Ao5SWC0J-236" value="&lt;b&gt;Paso 2:&lt;/b&gt; El alumno registrado ingresa los datos solicitados.&lt;br&gt;&lt;b&gt;Paso 4:&lt;/b&gt; el servidor externo acepta la conexion y solicita numero de tarjeta y codigo de seguridad&lt;div&gt;&lt;b&gt;Paso 6:&lt;/b&gt; el servidor externo valida los datos y fondos suficientes&lt;/div&gt;&lt;div&gt;&lt;b&gt;Paso 7:&lt;/b&gt; El servidor externo retorna el resultado&lt;/div&gt;" style="text;html=1;align=left;verticalAlign=middle;whiteSpace=wrap;rounded=0;" vertex="1" parent="1">
          <mxGeometry x="440" y="1840" width="240" height="120" as="geometry" />
        </mxCell>
        <mxCell id="im5-o7usMu12Ao5SWC0J-237" value="&lt;b&gt;Paso 1:&lt;/b&gt; el sistema solicita numero de tarjeta y codigo de seguridad&lt;div&gt;&lt;b&gt;Paso 3: &lt;/b&gt;El sistema solicita conexion con el servidor externo&lt;/div&gt;&lt;div&gt;&lt;b&gt;Paso 5: &lt;/b&gt;el sistema envia los datos de la tarjeta al servidor externo&lt;/div&gt;&lt;div&gt;&lt;b&gt;Paso 8:&lt;/b&gt; el sistema recibe los datos de la tarjetas correctos&lt;/div&gt;&lt;div&gt;&lt;b&gt;Paso 9:&lt;/b&gt; El sistema recive que los fondos son suficientes.&lt;/div&gt;&lt;div&gt;&lt;b&gt;Paso 10:&lt;/b&gt; el sistema registra el pago y cierra la conexion con el servidor externo&lt;/div&gt;" style="text;html=1;align=left;verticalAlign=middle;whiteSpace=wrap;rounded=0;" vertex="1" parent="1">
          <mxGeometry x="700" y="1840" width="240" height="120" as="geometry" />
        </mxCell>
        <mxCell id="im5-o7usMu12Ao5SWC0J-238" value="&lt;b&gt;Paso alternativo 3: &lt;/b&gt;Falla en la conexion con el servidor externo. Se informa el error. Fin del caso de uso&lt;div&gt;&lt;b&gt;Paso alternativo 8: &lt;/b&gt;Los datos de la tarjeta son incorrectos. Se informa el error en los datos. Fin del caso de uso&lt;/div&gt;&lt;div&gt;&lt;b&gt;Paso alternativo 9: &lt;/b&gt;Los fondos son insuficientes. Se informa fondo insuficientes. Fin del caso de uso&lt;/div&gt;" style="text;html=1;align=left;verticalAlign=middle;whiteSpace=wrap;rounded=0;" vertex="1" parent="1">
          <mxGeometry x="440" y="2040" width="470" height="30" as="geometry" />
        </mxCell>
        <mxCell id="im5-o7usMu12Ao5SWC0J-239" value="Se efectuo y registro el pago a traves de la targeta" style="text;html=1;align=center;verticalAlign=middle;whiteSpace=wrap;rounded=0;" vertex="1" parent="1">
          <mxGeometry x="440" y="2140" width="470" height="30" as="geometry" />
        </mxCell>
      </root>
    </mxGraphModel>
  </diagram>
</mxfile>
